<svg xmlns="http://www.w3.org/2000/svg" xmlns:xlink="http://www.w3.org/1999/xlink" width="500" zoomAndPan="magnify" viewBox="0 0 375 374.999991" height="500" preserveAspectRatio="xMidYMid meet" version="1.0"><defs><g/><clipPath id="72083b66c2"><path d="M 162 120 L 166 120 L 166 189 L 162 189 Z M 162 120 " clip-rule="nonzero"/></clipPath><clipPath id="dd04efbec8"><path d="M 97.921875 117.597656 L 165.0625 154.261719 L 104.675781 264.847656 L 37.535156 228.183594 Z M 97.921875 117.597656 " clip-rule="nonzero"/></clipPath><clipPath id="bd5aacc240"><path d="M 119.714844 77.6875 L 246.101562 146.703125 L 163.785156 297.441406 L 37.402344 228.429688 Z M 119.714844 77.6875 " clip-rule="nonzero"/></clipPath><clipPath id="893af7bb1d"><path d="M 244.382812 147.851562 C 244.128906 145.640625 233.25 145.261719 231.945312 145.214844 C 225.214844 144.980469 219.59375 145.886719 215.609375 146.8125 C 213.828125 144.195312 212.046875 141.582031 210.265625 138.964844 C 211.050781 138.839844 211.839844 138.71875 212.628906 138.59375 C 212.535156 138.015625 212.335938 137.171875 211.855469 136.253906 C 211.28125 135.167969 210.5625 134.449219 210.082031 134.039062 C 209.335938 134.210938 208.589844 134.382812 207.847656 134.554688 C 204.640625 130.09375 201.433594 125.632812 198.226562 121.175781 C 198.203125 121.160156 198.183594 121.148438 198.160156 121.136719 C 195.152344 120.609375 192.082031 120.652344 189.03125 120.492188 C 192.691406 126.742188 196.351562 132.992188 200.011719 139.246094 L 198.566406 139.628906 C 198.746094 139.960938 198.925781 140.296875 199.105469 140.628906 C 199.695312 140.660156 200.285156 140.6875 200.875 140.71875 C 202.183594 142.957031 203.492188 145.191406 204.800781 147.429688 L 173.890625 153.820312 C 172.136719 151.453125 170.386719 149.085938 168.632812 146.714844 C 166.421875 146.394531 164.210938 146.074219 162 145.753906 L 167.847656 156.105469 C 166.910156 156.4375 165.976562 156.769531 165.039062 157.105469 C 165.074219 157.363281 165.105469 157.621094 165.140625 157.882812 C 166.074219 158.03125 167.003906 158.175781 167.9375 158.324219 C 166.578125 161.777344 165.214844 165.226562 163.855469 168.679688 C 165.972656 168.082031 168.089844 167.484375 170.203125 166.886719 C 171.628906 164.15625 173.054688 161.429688 174.480469 158.699219 L 205.9375 157.570312 L 203.777344 164.191406 L 202.347656 164.585938 L 202.175781 165.269531 C 202.414062 165.429688 202.648438 165.589844 202.886719 165.753906 C 200.101562 173.234375 197.3125 180.714844 194.523438 188.195312 C 195.632812 187.945312 196.535156 187.710938 197.144531 187.53125 C 199.128906 186.945312 201.09375 186.261719 203.109375 185.78125 C 203.394531 185.710938 203.679688 185.648438 203.964844 185.589844 C 206.578125 180.164062 209.195312 174.742188 211.808594 169.320312 C 212.574219 169.304688 213.34375 169.289062 214.109375 169.273438 C 214.503906 168.792969 215.070312 167.984375 215.433594 166.851562 C 215.726562 165.9375 215.785156 165.132812 215.78125 164.574219 C 215.007812 164.449219 214.238281 164.324219 213.464844 164.199219 C 214.621094 161.402344 215.773438 158.605469 216.929688 155.804688 C 221.46875 155.632812 227.707031 154.960938 234.785156 152.730469 C 237.75 151.796875 244.589844 149.640625 244.382812 147.851562 Z M 244.382812 147.851562 " clip-rule="nonzero"/></clipPath><linearGradient x1="828.472498" gradientTransform="matrix(0.0591969, 0.0323255, -0.0323255, 0.0591969, 120.992464, 78.996518)" y1="449.21799" x2="1349.414178" gradientUnits="userSpaceOnUse" y2="449.21799" id="56cab1460e"><stop stop-opacity="1" stop-color="rgb(0%, 0%, 0%)" offset="0"/><stop stop-opacity="1" stop-color="rgb(0%, 0%, 0%)" offset="0.25"/><stop stop-opacity="1" stop-color="rgb(0%, 0%, 0%)" offset="0.3125"/><stop stop-opacity="1" stop-color="rgb(0%, 0%, 0%)" offset="0.34375"/><stop stop-opacity="1" stop-color="rgb(0.141907%, 0.141907%, 0.141907%)" offset="0.351562"/><stop stop-opacity="1" stop-color="rgb(0.440979%, 0.440979%, 0.440979%)" offset="0.359375"/><stop stop-opacity="1" stop-color="rgb(0.758362%, 0.758362%, 0.758362%)" offset="0.367188"/><stop stop-opacity="1" stop-color="rgb(1.074219%, 1.074219%, 1.074219%)" offset="0.375"/><stop stop-opacity="1" stop-color="rgb(1.391602%, 1.391602%, 1.391602%)" offset="0.382813"/><stop stop-opacity="1" stop-color="rgb(1.707458%, 1.707458%, 1.707458%)" offset="0.390625"/><stop stop-opacity="1" stop-color="rgb(2.024841%, 2.024841%, 2.024841%)" offset="0.398438"/><stop stop-opacity="1" stop-color="rgb(2.340698%, 2.340698%, 2.340698%)" offset="0.40625"/><stop stop-opacity="1" stop-color="rgb(2.658081%, 2.658081%, 2.658081%)" offset="0.414062"/><stop stop-opacity="1" stop-color="rgb(2.973938%, 2.973938%, 2.973938%)" offset="0.421875"/><stop stop-opacity="1" stop-color="rgb(3.291321%, 3.291321%, 3.291321%)" offset="0.429688"/><stop stop-opacity="1" stop-color="rgb(3.607178%, 3.607178%, 3.607178%)" offset="0.4375"/><stop stop-opacity="1" stop-color="rgb(3.924561%, 3.924561%, 3.924561%)" offset="0.445312"/><stop stop-opacity="1" stop-color="rgb(4.240417%, 4.240417%, 4.240417%)" offset="0.453125"/><stop stop-opacity="1" stop-color="rgb(4.5578%, 4.5578%, 4.5578%)" offset="0.460938"/><stop stop-opacity="1" stop-color="rgb(4.873657%, 4.873657%, 4.873657%)" offset="0.46875"/><stop stop-opacity="1" stop-color="rgb(5.19104%, 5.19104%, 5.19104%)" offset="0.476562"/><stop stop-opacity="1" stop-color="rgb(5.506897%, 5.506897%, 5.506897%)" offset="0.484375"/><stop stop-opacity="1" stop-color="rgb(5.82428%, 5.82428%, 5.82428%)" offset="0.492188"/><stop stop-opacity="1" stop-color="rgb(6.141663%, 6.141663%, 6.141663%)" offset="0.5"/><stop stop-opacity="1" stop-color="rgb(6.45752%, 6.45752%, 6.45752%)" offset="0.507812"/><stop stop-opacity="1" stop-color="rgb(6.774902%, 6.774902%, 6.774902%)" offset="0.515625"/><stop stop-opacity="1" stop-color="rgb(7.090759%, 7.090759%, 7.090759%)" offset="0.523438"/><stop stop-opacity="1" stop-color="rgb(7.408142%, 7.408142%, 7.408142%)" offset="0.53125"/><stop stop-opacity="1" stop-color="rgb(7.723999%, 7.723999%, 7.723999%)" offset="0.539063"/><stop stop-opacity="1" stop-color="rgb(8.041382%, 8.041382%, 8.041382%)" offset="0.546875"/><stop stop-opacity="1" stop-color="rgb(8.357239%, 8.357239%, 8.357239%)" offset="0.554688"/><stop stop-opacity="1" stop-color="rgb(8.674622%, 8.674622%, 8.674622%)" offset="0.5625"/><stop stop-opacity="1" stop-color="rgb(8.990479%, 8.990479%, 8.990479%)" offset="0.570313"/><stop stop-opacity="1" stop-color="rgb(9.307861%, 9.307861%, 9.307861%)" offset="0.578125"/><stop stop-opacity="1" stop-color="rgb(9.623718%, 9.623718%, 9.623718%)" offset="0.585938"/><stop stop-opacity="1" stop-color="rgb(9.941101%, 9.941101%, 9.941101%)" offset="0.59375"/><stop stop-opacity="1" stop-color="rgb(10.256958%, 10.256958%, 10.256958%)" offset="0.601563"/><stop stop-opacity="1" stop-color="rgb(10.574341%, 10.574341%, 10.574341%)" offset="0.609375"/><stop stop-opacity="1" stop-color="rgb(10.890198%, 10.890198%, 10.890198%)" offset="0.617188"/><stop stop-opacity="1" stop-color="rgb(11.207581%, 11.207581%, 11.207581%)" offset="0.625"/><stop stop-opacity="1" stop-color="rgb(11.523438%, 11.523438%, 11.523438%)" offset="0.632813"/><stop stop-opacity="1" stop-color="rgb(11.84082%, 11.84082%, 11.84082%)" offset="0.640625"/><stop stop-opacity="1" stop-color="rgb(12.156677%, 12.156677%, 12.156677%)" offset="0.648438"/><stop stop-opacity="1" stop-color="rgb(12.47406%, 12.47406%, 12.47406%)" offset="0.65625"/><stop stop-opacity="1" stop-color="rgb(12.789917%, 12.789917%, 12.789917%)" offset="0.664063"/><stop stop-opacity="1" stop-color="rgb(13.1073%, 13.1073%, 13.1073%)" offset="0.671875"/><stop stop-opacity="1" stop-color="rgb(13.423157%, 13.423157%, 13.423157%)" offset="0.679688"/><stop stop-opacity="1" stop-color="rgb(13.74054%, 13.74054%, 13.74054%)" offset="0.6875"/><stop stop-opacity="1" stop-color="rgb(14.056396%, 14.056396%, 14.056396%)" offset="0.695313"/><stop stop-opacity="1" stop-color="rgb(14.373779%, 14.373779%, 14.373779%)" offset="0.703125"/><stop stop-opacity="1" stop-color="rgb(14.689636%, 14.689636%, 14.689636%)" offset="0.710938"/><stop stop-opacity="1" stop-color="rgb(15.007019%, 15.007019%, 15.007019%)" offset="0.71875"/><stop stop-opacity="1" stop-color="rgb(15.322876%, 15.322876%, 15.322876%)" offset="0.726563"/><stop stop-opacity="1" stop-color="rgb(15.640259%, 15.640259%, 15.640259%)" offset="0.734375"/><stop stop-opacity="1" stop-color="rgb(15.956116%, 15.956116%, 15.956116%)" offset="0.742188"/><stop stop-opacity="1" stop-color="rgb(16.273499%, 16.273499%, 16.273499%)" offset="0.75"/><stop stop-opacity="1" stop-color="rgb(16.589355%, 16.589355%, 16.589355%)" offset="0.757812"/><stop stop-opacity="1" stop-color="rgb(16.906738%, 16.906738%, 16.906738%)" offset="0.765625"/><stop stop-opacity="1" stop-color="rgb(17.222595%, 17.222595%, 17.222595%)" offset="0.773438"/><stop stop-opacity="1" stop-color="rgb(17.539978%, 17.539978%, 17.539978%)" offset="0.78125"/><stop stop-opacity="1" stop-color="rgb(17.855835%, 17.855835%, 17.855835%)" offset="0.789062"/><stop stop-opacity="1" stop-color="rgb(18.173218%, 18.173218%, 18.173218%)" offset="0.796875"/><stop stop-opacity="1" stop-color="rgb(18.489075%, 18.489075%, 18.489075%)" offset="0.804688"/><stop stop-opacity="1" stop-color="rgb(18.806458%, 18.806458%, 18.806458%)" offset="0.8125"/><stop stop-opacity="1" stop-color="rgb(19.122314%, 19.122314%, 19.122314%)" offset="0.820312"/><stop stop-opacity="1" stop-color="rgb(19.439697%, 19.439697%, 19.439697%)" offset="0.828125"/><stop stop-opacity="1" stop-color="rgb(19.755554%, 19.755554%, 19.755554%)" offset="0.835938"/><stop stop-opacity="1" stop-color="rgb(20.072937%, 20.072937%, 20.072937%)" offset="0.84375"/><stop stop-opacity="1" stop-color="rgb(20.388794%, 20.388794%, 20.388794%)" offset="0.851562"/><stop stop-opacity="1" stop-color="rgb(20.706177%, 20.706177%, 20.706177%)" offset="0.859375"/><stop stop-opacity="1" stop-color="rgb(21.022034%, 21.022034%, 21.022034%)" offset="0.867187"/><stop stop-opacity="1" stop-color="rgb(21.339417%, 21.339417%, 21.339417%)" offset="0.875"/><stop stop-opacity="1" stop-color="rgb(21.655273%, 21.655273%, 21.655273%)" offset="0.882812"/><stop stop-opacity="1" stop-color="rgb(21.972656%, 21.972656%, 21.972656%)" offset="0.890625"/><stop stop-opacity="1" stop-color="rgb(22.288513%, 22.288513%, 22.288513%)" offset="0.898437"/><stop stop-opacity="1" stop-color="rgb(22.605896%, 22.605896%, 22.605896%)" offset="0.90625"/><stop stop-opacity="1" stop-color="rgb(22.921753%, 22.921753%, 22.921753%)" offset="0.914062"/><stop stop-opacity="1" stop-color="rgb(23.239136%, 23.239136%, 23.239136%)" offset="0.921875"/><stop stop-opacity="1" stop-color="rgb(23.554993%, 23.554993%, 23.554993%)" offset="0.929687"/><stop stop-opacity="1" stop-color="rgb(23.872375%, 23.872375%, 23.872375%)" offset="0.9375"/><stop stop-opacity="1" stop-color="rgb(24.188232%, 24.188232%, 24.188232%)" offset="0.945312"/><stop stop-opacity="1" stop-color="rgb(24.505615%, 24.505615%, 24.505615%)" offset="0.953125"/><stop stop-opacity="1" stop-color="rgb(24.821472%, 24.821472%, 24.821472%)" offset="0.960937"/><stop stop-opacity="1" stop-color="rgb(25.138855%, 25.138855%, 25.138855%)" offset="0.96875"/><stop stop-opacity="1" stop-color="rgb(25.454712%, 25.454712%, 25.454712%)" offset="0.976562"/><stop stop-opacity="1" stop-color="rgb(25.772095%, 25.772095%, 25.772095%)" offset="0.984375"/><stop stop-opacity="1" stop-color="rgb(26.089478%, 26.089478%, 26.089478%)" offset="0.992187"/><stop stop-opacity="1" stop-color="rgb(26.405334%, 26.405334%, 26.405334%)" offset="1"/></linearGradient><clipPath id="13ea1acc55"><path d="M 46 157 L 162 157 L 162 240 L 46 240 Z M 46 157 " clip-rule="nonzero"/></clipPath><clipPath id="1e956763f7"><path d="M 97.921875 117.597656 L 165.0625 154.261719 L 104.675781 264.847656 L 37.535156 228.183594 Z M 97.921875 117.597656 " clip-rule="nonzero"/></clipPath><clipPath id="f0b23a5c71"><path d="M 119.714844 77.6875 L 246.101562 146.703125 L 163.785156 297.441406 L 37.402344 228.429688 Z M 119.714844 77.6875 " clip-rule="nonzero"/></clipPath><clipPath id="0d14a42b73"><path d="M 70.003906 186.140625 C 60.964844 193.25 51.113281 203.3125 47.890625 214.613281 C 46.335938 219.664062 45.976562 225.5 48.519531 230.308594 C 50.933594 235.019531 55.632812 238.132812 60.605469 239.5625 C 54.609375 236.773438 49.585938 231.820312 49.210938 224.925781 C 49.003906 221.734375 49.773438 218.570312 50.886719 215.59375 C 55.035156 204.125 67.023438 193.757812 76.859375 186.925781 C 87.101562 179.84375 98.304688 174.199219 109.921875 169.722656 C 120.457031 165.675781 131.332031 162.636719 142.433594 160.519531 C 148.632812 159.328125 154.90625 158.460938 161.179688 157.78125 C 129.457031 156.417969 95.171875 166.628906 70.003906 186.140625 Z M 70.003906 186.140625 " clip-rule="nonzero"/></clipPath><linearGradient x1="-426.022431" gradientTransform="matrix(0.0591969, 0.0323255, -0.0323255, 0.0591969, 120.992464, 78.996518)" y1="1633.19897" x2="1663.900727" gradientUnits="userSpaceOnUse" y2="1633.19897" id="dafc4984b8"><stop stop-opacity="1" stop-color="rgb(0%, 0%, 0%)" offset="0"/><stop stop-opacity="1" stop-color="rgb(0%, 0%, 0%)" offset="0.125"/><stop stop-opacity="1" stop-color="rgb(0%, 0%, 0%)" offset="0.1875"/><stop stop-opacity="1" stop-color="rgb(0%, 0%, 0%)" offset="0.203125"/><stop stop-opacity="1" stop-color="rgb(0.579834%, 0.579834%, 0.579834%)" offset="0.207031"/><stop stop-opacity="1" stop-color="rgb(1.159668%, 1.159668%, 1.159668%)" offset="0.210938"/><stop stop-opacity="1" stop-color="rgb(1.797485%, 1.797485%, 1.797485%)" offset="0.214844"/><stop stop-opacity="1" stop-color="rgb(2.436829%, 2.436829%, 2.436829%)" offset="0.21875"/><stop stop-opacity="1" stop-color="rgb(3.074646%, 3.074646%, 3.074646%)" offset="0.222656"/><stop stop-opacity="1" stop-color="rgb(3.713989%, 3.713989%, 3.713989%)" offset="0.226562"/><stop stop-opacity="1" stop-color="rgb(4.351807%, 4.351807%, 4.351807%)" offset="0.230469"/><stop stop-opacity="1" stop-color="rgb(4.99115%, 4.99115%, 4.99115%)" offset="0.234375"/><stop stop-opacity="1" stop-color="rgb(5.630493%, 5.630493%, 5.630493%)" offset="0.238281"/><stop stop-opacity="1" stop-color="rgb(6.269836%, 6.269836%, 6.269836%)" offset="0.242188"/><stop stop-opacity="1" stop-color="rgb(6.907654%, 6.907654%, 6.907654%)" offset="0.246094"/><stop stop-opacity="1" stop-color="rgb(7.546997%, 7.546997%, 7.546997%)" offset="0.25"/><stop stop-opacity="1" stop-color="rgb(8.184814%, 8.184814%, 8.184814%)" offset="0.253906"/><stop stop-opacity="1" stop-color="rgb(8.824158%, 8.824158%, 8.824158%)" offset="0.257812"/><stop stop-opacity="1" stop-color="rgb(9.463501%, 9.463501%, 9.463501%)" offset="0.261719"/><stop stop-opacity="1" stop-color="rgb(10.102844%, 10.102844%, 10.102844%)" offset="0.265625"/><stop stop-opacity="1" stop-color="rgb(10.740662%, 10.740662%, 10.740662%)" offset="0.269531"/><stop stop-opacity="1" stop-color="rgb(11.380005%, 11.380005%, 11.380005%)" offset="0.273437"/><stop stop-opacity="1" stop-color="rgb(12.017822%, 12.017822%, 12.017822%)" offset="0.277344"/><stop stop-opacity="1" stop-color="rgb(12.657166%, 12.657166%, 12.657166%)" offset="0.28125"/><stop stop-opacity="1" stop-color="rgb(13.294983%, 13.294983%, 13.294983%)" offset="0.285156"/><stop stop-opacity="1" stop-color="rgb(13.934326%, 13.934326%, 13.934326%)" offset="0.289062"/><stop stop-opacity="1" stop-color="rgb(14.573669%, 14.573669%, 14.573669%)" offset="0.292969"/><stop stop-opacity="1" stop-color="rgb(15.213013%, 15.213013%, 15.213013%)" offset="0.296875"/><stop stop-opacity="1" stop-color="rgb(15.85083%, 15.85083%, 15.85083%)" offset="0.300781"/><stop stop-opacity="1" stop-color="rgb(16.490173%, 16.490173%, 16.490173%)" offset="0.304688"/><stop stop-opacity="1" stop-color="rgb(17.127991%, 17.127991%, 17.127991%)" offset="0.308594"/><stop stop-opacity="1" stop-color="rgb(17.767334%, 17.767334%, 17.767334%)" offset="0.3125"/><stop stop-opacity="1" stop-color="rgb(18.406677%, 18.406677%, 18.406677%)" offset="0.316406"/><stop stop-opacity="1" stop-color="rgb(19.046021%, 19.046021%, 19.046021%)" offset="0.320312"/><stop stop-opacity="1" stop-color="rgb(19.683838%, 19.683838%, 19.683838%)" offset="0.324219"/><stop stop-opacity="1" stop-color="rgb(20.323181%, 20.323181%, 20.323181%)" offset="0.328125"/><stop stop-opacity="1" stop-color="rgb(20.960999%, 20.960999%, 20.960999%)" offset="0.332031"/><stop stop-opacity="1" stop-color="rgb(21.600342%, 21.600342%, 21.600342%)" offset="0.335938"/><stop stop-opacity="1" stop-color="rgb(22.238159%, 22.238159%, 22.238159%)" offset="0.339844"/><stop stop-opacity="1" stop-color="rgb(22.877502%, 22.877502%, 22.877502%)" offset="0.34375"/><stop stop-opacity="1" stop-color="rgb(23.516846%, 23.516846%, 23.516846%)" offset="0.347656"/><stop stop-opacity="1" stop-color="rgb(24.156189%, 24.156189%, 24.156189%)" offset="0.351562"/><stop stop-opacity="1" stop-color="rgb(24.794006%, 24.794006%, 24.794006%)" offset="0.355469"/><stop stop-opacity="1" stop-color="rgb(25.43335%, 25.43335%, 25.43335%)" offset="0.359375"/><stop stop-opacity="1" stop-color="rgb(26.071167%, 26.071167%, 26.071167%)" offset="0.363281"/><stop stop-opacity="1" stop-color="rgb(26.71051%, 26.71051%, 26.71051%)" offset="0.367188"/><stop stop-opacity="1" stop-color="rgb(27.349854%, 27.349854%, 27.349854%)" offset="0.371094"/><stop stop-opacity="1" stop-color="rgb(27.989197%, 27.989197%, 27.989197%)" offset="0.375"/><stop stop-opacity="1" stop-color="rgb(28.627014%, 28.627014%, 28.627014%)" offset="0.378906"/><stop stop-opacity="1" stop-color="rgb(29.266357%, 29.266357%, 29.266357%)" offset="0.382812"/><stop stop-opacity="1" stop-color="rgb(30.62439%, 30.62439%, 30.62439%)" offset="0.386719"/><stop stop-opacity="1" stop-color="rgb(31.983948%, 31.983948%, 31.983948%)" offset="0.390625"/><stop stop-opacity="1" stop-color="rgb(33.425903%, 33.425903%, 33.425903%)" offset="0.394531"/><stop stop-opacity="1" stop-color="rgb(34.869385%, 34.869385%, 34.869385%)" offset="0.398438"/><stop stop-opacity="1" stop-color="rgb(36.31134%, 36.31134%, 36.31134%)" offset="0.402344"/><stop stop-opacity="1" stop-color="rgb(37.753296%, 37.753296%, 37.753296%)" offset="0.40625"/><stop stop-opacity="1" stop-color="rgb(39.195251%, 39.195251%, 39.195251%)" offset="0.410156"/><stop stop-opacity="1" stop-color="rgb(40.638733%, 40.638733%, 40.638733%)" offset="0.414062"/><stop stop-opacity="1" stop-color="rgb(42.080688%, 42.080688%, 42.080688%)" offset="0.417969"/><stop stop-opacity="1" stop-color="rgb(43.52417%, 43.52417%, 43.52417%)" offset="0.421875"/><stop stop-opacity="1" stop-color="rgb(44.966125%, 44.966125%, 44.966125%)" offset="0.425781"/><stop stop-opacity="1" stop-color="rgb(46.409607%, 46.409607%, 46.409607%)" offset="0.429688"/><stop stop-opacity="1" stop-color="rgb(47.851562%, 47.851562%, 47.851562%)" offset="0.433594"/><stop stop-opacity="1" stop-color="rgb(49.295044%, 49.295044%, 49.295044%)" offset="0.4375"/><stop stop-opacity="1" stop-color="rgb(50.737%, 50.737%, 50.737%)" offset="0.441406"/><stop stop-opacity="1" stop-color="rgb(52.178955%, 52.178955%, 52.178955%)" offset="0.445312"/><stop stop-opacity="1" stop-color="rgb(53.620911%, 53.620911%, 53.620911%)" offset="0.449219"/><stop stop-opacity="1" stop-color="rgb(55.064392%, 55.064392%, 55.064392%)" offset="0.453125"/><stop stop-opacity="1" stop-color="rgb(56.506348%, 56.506348%, 56.506348%)" offset="0.457031"/><stop stop-opacity="1" stop-color="rgb(57.949829%, 57.949829%, 57.949829%)" offset="0.460938"/><stop stop-opacity="1" stop-color="rgb(59.391785%, 59.391785%, 59.391785%)" offset="0.464844"/><stop stop-opacity="1" stop-color="rgb(60.835266%, 60.835266%, 60.835266%)" offset="0.46875"/><stop stop-opacity="1" stop-color="rgb(62.277222%, 62.277222%, 62.277222%)" offset="0.472656"/><stop stop-opacity="1" stop-color="rgb(63.719177%, 63.719177%, 63.719177%)" offset="0.476562"/><stop stop-opacity="1" stop-color="rgb(65.161133%, 65.161133%, 65.161133%)" offset="0.480469"/><stop stop-opacity="1" stop-color="rgb(66.604614%, 66.604614%, 66.604614%)" offset="0.484375"/><stop stop-opacity="1" stop-color="rgb(68.04657%, 68.04657%, 68.04657%)" offset="0.488281"/><stop stop-opacity="1" stop-color="rgb(69.490051%, 69.490051%, 69.490051%)" offset="0.492188"/><stop stop-opacity="1" stop-color="rgb(70.932007%, 70.932007%, 70.932007%)" offset="0.496094"/><stop stop-opacity="1" stop-color="rgb(72.375488%, 72.375488%, 72.375488%)" offset="0.5"/><stop stop-opacity="1" stop-color="rgb(73.817444%, 73.817444%, 73.817444%)" offset="0.503906"/><stop stop-opacity="1" stop-color="rgb(75.259399%, 75.259399%, 75.259399%)" offset="0.507812"/><stop stop-opacity="1" stop-color="rgb(76.701355%, 76.701355%, 76.701355%)" offset="0.511719"/><stop stop-opacity="1" stop-color="rgb(78.144836%, 78.144836%, 78.144836%)" offset="0.515625"/><stop stop-opacity="1" stop-color="rgb(79.586792%, 79.586792%, 79.586792%)" offset="0.519531"/><stop stop-opacity="1" stop-color="rgb(81.030273%, 81.030273%, 81.030273%)" offset="0.523438"/><stop stop-opacity="1" stop-color="rgb(82.472229%, 82.472229%, 82.472229%)" offset="0.527344"/><stop stop-opacity="1" stop-color="rgb(83.91571%, 83.91571%, 83.91571%)" offset="0.53125"/><stop stop-opacity="1" stop-color="rgb(85.357666%, 85.357666%, 85.357666%)" offset="0.535156"/><stop stop-opacity="1" stop-color="rgb(86.799622%, 86.799622%, 86.799622%)" offset="0.539062"/><stop stop-opacity="1" stop-color="rgb(88.241577%, 88.241577%, 88.241577%)" offset="0.542969"/><stop stop-opacity="1" stop-color="rgb(89.685059%, 89.685059%, 89.685059%)" offset="0.546875"/><stop stop-opacity="1" stop-color="rgb(91.127014%, 91.127014%, 91.127014%)" offset="0.550781"/><stop stop-opacity="1" stop-color="rgb(92.570496%, 92.570496%, 92.570496%)" offset="0.554688"/><stop stop-opacity="1" stop-color="rgb(94.012451%, 94.012451%, 94.012451%)" offset="0.558594"/><stop stop-opacity="1" stop-color="rgb(95.455933%, 95.455933%, 95.455933%)" offset="0.5625"/><stop stop-opacity="1" stop-color="rgb(96.897888%, 96.897888%, 96.897888%)" offset="0.566406"/><stop stop-opacity="1" stop-color="rgb(98.339844%, 98.339844%, 98.339844%)" offset="0.570312"/><stop stop-opacity="1" stop-color="rgb(99.169922%, 99.169922%, 99.169922%)" offset="0.574219"/><stop stop-opacity="1" stop-color="rgb(100%, 100%, 100%)" offset="0.578125"/><stop stop-opacity="1" stop-color="rgb(100%, 100%, 100%)" offset="0.59375"/><stop stop-opacity="1" stop-color="rgb(100%, 100%, 100%)" offset="0.625"/><stop stop-opacity="1" stop-color="rgb(100%, 100%, 100%)" offset="0.75"/><stop stop-opacity="1" stop-color="rgb(100%, 100%, 100%)" offset="1"/></linearGradient><clipPath id="01c16d24fd"><path d="M 85.371094 248.722656 L 299.628906 248.722656 L 299.628906 270.960938 L 85.371094 270.960938 Z M 85.371094 248.722656 " clip-rule="nonzero"/></clipPath><clipPath id="647f99604b"><path d="M 159.851562 149 L 240.355469 149 L 240.355469 162.511719 L 159.851562 162.511719 Z M 159.851562 149 " clip-rule="nonzero"/></clipPath></defs><g clip-path="url(#72083b66c2)"><g clip-path="url(#dd04efbec8)"><g clip-path="url(#bd5aacc240)"><g clip-path="url(#893af7bb1d)"><path fill="url(#56cab1460e)" d="M 162.703125 119.203125 L 133.523438 172.644531 L 164.359375 189.484375 L 193.542969 136.042969 Z M 162.703125 119.203125 " fill-rule="nonzero"/></g></g></g></g><g clip-path="url(#13ea1acc55)"><g clip-path="url(#1e956763f7)"><g clip-path="url(#f0b23a5c71)"><g clip-path="url(#0d14a42b73)"><path fill="url(#dafc4984b8)" d="M 72.4375 107.957031 L 11.003906 220.464844 L 134.71875 288.023438 L 196.15625 175.515625 Z M 72.4375 107.957031 " fill-rule="nonzero"/></g></g></g></g><g clip-path="url(#01c16d24fd)"><path fill="#ffffff" d="M 85.371094 248.722656 L 299.671875 248.722656 L 299.671875 270.960938 L 85.371094 270.960938 Z M 85.371094 248.722656 " fill-opacity="1" fill-rule="nonzero"/></g><path fill="#ffffff" d="M 231.824219 129.507812 C 233.734375 133.339844 234.445312 140.742188 234.042969 145.566406 C 237.449219 144.832031 237.609375 144.65625 236.992188 141.847656 C 236.230469 138.378906 234.523438 132.691406 231.824219 129.507812 Z M 238.988281 135.492188 C 238.503906 135.167969 238.09375 131.804688 236.1875 130.285156 C 235.585938 129.804688 234.917969 129.636719 234.234375 129.585938 C 237.4375 133.214844 238.804688 139.765625 239.511719 144 C 240.507812 149.953125 214.8125 149.179688 214.226562 143.546875 C 213.675781 138.292969 212.875 132.175781 211.476562 128.652344 C 212.21875 128.6875 212.9375 128.84375 213.585938 129.359375 C 215.492188 130.882812 215.902344 134.242188 216.386719 134.570312 C 216.96875 134.964844 218.5625 134.976562 219.0625 134.035156 C 219.566406 133.097656 217.578125 128.1875 216.328125 127.761719 C 215.445312 127.460938 212.589844 127.519531 210.988281 127.582031 C 210.613281 126.875 210.203125 126.34375 209.746094 126.039062 C 217.785156 125.988281 225.636719 126.449219 229.703125 127 C 231.011719 127.175781 232.144531 127.722656 233.132812 128.527344 C 234.578125 128.460938 237.957031 128.351562 238.929688 128.6875 C 240.179688 129.113281 242.167969 134.023438 241.664062 134.960938 C 241.164062 135.898438 239.574219 135.890625 238.988281 135.492188 " fill-opacity="1" fill-rule="evenodd"/><path fill="#ffffff" d="M 210.730469 144.679688 C 204.210938 145.441406 202.128906 141.878906 197.832031 140.480469 L 197.585938 140.527344 L 198.042969 129.097656 L 198.285156 129.023438 C 205.097656 126.929688 208.171875 124.257812 209.488281 130.847656 C 210.371094 135.265625 210.855469 140.136719 210.730469 144.679688 " fill-opacity="1" fill-rule="evenodd"/><path fill="#ffffff" d="M 164.234375 150.453125 L 197.820312 144.113281 L 163.867188 152.699219 L 162.910156 158.570312 L 162.910156 145.148438 L 162.917969 145.15625 C 162.890625 144.1875 162.90625 143.097656 163.054688 142.328125 C 163.382812 140.605469 163.820312 139.839844 164.695312 139.449219 C 164.9375 139.34375 167.796875 138.441406 171.917969 137.160156 L 172.449219 143.027344 L 172.644531 136.933594 C 175.621094 136.007812 179.171875 134.910156 182.835938 133.78125 L 183.457031 140.636719 L 183.683594 133.519531 C 187.898438 132.21875 192.207031 130.894531 195.914062 129.753906 L 197.140625 140.617188 L 164.789062 147.046875 L 164.234375 150.453125 " fill-opacity="1" fill-rule="evenodd"/><path fill="#ffffff" d="M 240 148.902344 C 240.085938 149.019531 240.207031 149.902344 240.253906 150.742188 C 240.300781 151.550781 240.273438 152.316406 240.273438 152.316406 L 234.492188 152.316406 C 234.492188 152.316406 234.300781 151.75 234.410156 151.265625 C 234.519531 150.78125 239.835938 148.675781 240 148.902344 " fill-opacity="1" fill-rule="evenodd"/><path fill="#ffffff" d="M 221.269531 150.898438 C 221.394531 151.453125 221.175781 152.101562 221.175781 152.101562 L 214.558594 152.101562 C 214.558594 152.101562 214.527344 151.222656 214.582031 150.300781 C 214.636719 149.339844 214.773438 148.332031 214.871094 148.195312 C 215.058594 147.9375 221.144531 150.34375 221.269531 150.898438 " fill-opacity="1" fill-rule="evenodd"/><g clip-path="url(#647f99604b)"><path fill="#ffffff" d="M 199.78125 161.21875 C 199.28125 160.886719 198.828125 160.433594 198.449219 159.882812 C 198.398438 159.808594 198.351562 159.734375 198.300781 159.65625 L 175.53125 159.988281 C 175.335938 160.332031 174.976562 160.914062 174.617188 161.230469 C 181.785156 161.152344 190.777344 161.160156 199.78125 161.21875 Z M 228.84375 160.386719 C 228.300781 160.804688 227.683594 161.042969 227.027344 161.042969 C 225.96875 161.042969 225.011719 160.425781 224.316406 159.429688 L 213.871094 159.429688 L 208.511719 159.507812 C 208.144531 160.113281 207.617188 160.878906 207.101562 161.277344 C 214.671875 161.347656 221.878906 161.449219 227.605469 161.554688 Z M 203.65625 152.011719 C 203.105469 151.210938 202.597656 150.71875 201.800781 150.71875 C 201 150.71875 200.257812 151.210938 199.707031 152.011719 C 198.398438 153.898438 198.398438 157.054688 199.707031 158.945312 C 200.257812 159.742188 201 160.238281 201.800781 160.238281 C 202.597656 160.238281 203.105469 159.742188 203.65625 158.945312 C 204.964844 157.054688 204.964844 153.898438 203.65625 152.011719 Z M 172.476562 155.789062 C 172.171875 155.347656 171.765625 155.074219 171.335938 155.074219 C 170.902344 155.074219 170.5 155.347656 170.191406 155.789062 C 169.84375 156.292969 169.632812 157 169.632812 157.789062 C 169.632812 158.585938 169.84375 159.289062 170.191406 159.792969 C 170.5 160.234375 170.902344 160.507812 171.335938 160.507812 C 171.765625 160.507812 172.171875 160.234375 172.476562 159.792969 C 172.828125 159.289062 173.042969 158.585938 173.042969 157.789062 C 173.042969 157 172.828125 156.292969 172.476562 155.789062 Z M 169.90625 161.300781 C 169.636719 161.101562 169.398438 160.84375 169.1875 160.542969 C 169.089844 160.402344 169 160.246094 168.914062 160.085938 L 162.945312 160.171875 C 163.859375 159.414062 165.027344 159.621094 166.21875 159.5625 L 168.648438 159.441406 C 168.480469 158.9375 168.390625 158.378906 168.390625 157.789062 C 168.390625 156.726562 168.695312 155.75 169.1875 155.039062 C 169.726562 154.261719 170.484375 153.78125 171.335938 153.78125 C 172.1875 153.78125 172.945312 154.261719 173.484375 155.039062 C 173.976562 155.75 174.285156 156.726562 174.285156 157.789062 C 174.285156 158.273438 174.21875 158.738281 174.105469 159.164062 L 197.542969 157.984375 C 197.304688 157.214844 197.175781 156.367188 197.175781 155.476562 C 197.175781 153.769531 197.660156 152.210938 198.449219 151.070312 C 199.289062 149.855469 200.472656 149.105469 201.800781 149.105469 C 203.125 149.105469 204.308594 149.855469 205.148438 151.070312 C 205.847656 152.082031 206.3125 153.417969 206.40625 154.898438 C 206.699219 156.625 207.648438 157.496094 207.648438 157.496094 C 211.542969 157.421875 214.546875 157.671875 214.570312 153.550781 L 240.285156 153.847656 C 240.234375 154.355469 240.15625 154.789062 240.050781 155.136719 C 238.96875 158.660156 236.398438 159.347656 233.519531 159.449219 C 233.082031 160.179688 232.390625 161.1875 231.765625 161.472656 C 231.625 161.535156 231.429688 161.585938 231.207031 161.628906 C 236.539062 161.746094 239.894531 161.867188 239.894531 161.964844 C 239.894531 162.4375 159.851562 163.480469 159.851562 161.964844 C 159.851562 161.628906 163.785156 161.417969 169.90625 161.300781 " fill-opacity="1" fill-rule="evenodd"/></g><g fill="#ffffff" fill-opacity="1"><g transform="translate(58.155478, 232.091265)"><g><path d="M 16.265625 -31.921875 L 27.625 -31.921875 L 27.625 -24.703125 L 18.828125 -24.703125 C 17.117188 -24.703125 15.578125 -24.285156 14.203125 -23.453125 C 12.828125 -22.628906 11.742188 -21.570312 10.953125 -20.28125 C 10.160156 -18.988281 9.765625 -17.648438 9.765625 -16.265625 C 9.765625 -14.554688 10.148438 -13.015625 10.921875 -11.640625 C 11.703125 -10.265625 12.78125 -9.179688 14.15625 -8.390625 C 15.53125 -7.597656 17.085938 -7.203125 18.828125 -7.203125 L 27.625 -7.203125 L 27.625 0 L 16.171875 0 C 13.910156 0 11.820312 -0.414062 9.90625 -1.25 C 8 -2.09375 6.351562 -3.253906 4.96875 -4.734375 C 3.582031 -6.222656 2.5 -7.945312 1.71875 -9.90625 C 0.945312 -11.875 0.5625 -13.992188 0.5625 -16.265625 C 0.5625 -18.367188 0.988281 -20.359375 1.84375 -22.234375 C 2.695312 -24.117188 3.859375 -25.789062 5.328125 -27.25 C 6.796875 -28.707031 8.46875 -29.847656 10.34375 -30.671875 C 12.226562 -31.503906 14.203125 -31.921875 16.265625 -31.921875 Z M 16.265625 -31.921875 "/></g></g></g><g fill="#ffffff" fill-opacity="1"><g transform="translate(86.345787, 232.091265)"><g><path d="M 1.203125 -31.921875 L 9.609375 -31.921875 L 9.609375 0 L 1.203125 0 Z M 22.90625 -31.921875 L 31.3125 -31.921875 L 31.3125 7.203125 L 22.90625 7.203125 L 22.90625 -10.9375 L 11.53125 -10.9375 L 11.53125 -18.140625 L 22.90625 -18.140625 Z M 22.90625 -31.921875 "/></g></g></g><g fill="#ffffff" fill-opacity="1"><g transform="translate(118.86075, 232.091265)"><g><path d="M 21.421875 -7.203125 L 0.5625 -7.203125 L 0.5625 -17.546875 C 0.5625 -19.648438 0.96875 -21.625 1.78125 -23.46875 C 2.59375 -25.3125 3.726562 -26.925781 5.1875 -28.3125 C 6.644531 -29.695312 8.328125 -30.785156 10.234375 -31.578125 C 12.140625 -32.367188 14.1875 -32.765625 16.375 -32.765625 C 18.539062 -32.765625 20.570312 -32.367188 22.46875 -31.578125 C 24.363281 -30.785156 26.03125 -29.6875 27.46875 -28.28125 C 28.914062 -26.882812 30.046875 -25.265625 30.859375 -23.421875 C 31.671875 -21.585938 32.078125 -19.613281 32.078125 -17.5 L 32.078125 7.203125 L 23.34375 7.203125 L 23.34375 -17.9375 C 23.34375 -19.351562 23.03125 -20.632812 22.40625 -21.78125 C 21.78125 -22.925781 20.945312 -23.835938 19.90625 -24.515625 C 18.863281 -25.203125 17.703125 -25.546875 16.421875 -25.546875 C 15.109375 -25.546875 13.910156 -25.210938 12.828125 -24.546875 C 11.753906 -23.878906 10.894531 -22.984375 10.25 -21.859375 C 9.613281 -20.742188 9.296875 -19.503906 9.296875 -18.140625 L 9.296875 -14.421875 L 21.421875 -14.421875 Z M 21.421875 -7.203125 "/></g></g></g><g fill="#ffffff" fill-opacity="1"><g transform="translate(152.136528, 232.091265)"><g><path d="M 2.25 -31.921875 L 11.015625 -31.921875 C 10.828125 -31.492188 10.695312 -31.097656 10.625 -30.734375 C 10.5625 -30.378906 10.53125 -30.023438 10.53125 -29.671875 C 10.53125 -28.765625 10.8125 -27.941406 11.375 -27.203125 C 11.9375 -26.472656 12.65625 -25.753906 13.53125 -25.046875 C 14.414062 -24.335938 15.351562 -23.582031 16.34375 -22.78125 C 17.332031 -21.976562 18.269531 -21.050781 19.15625 -20 C 20.050781 -18.945312 20.78125 -17.695312 21.34375 -16.25 C 21.90625 -14.8125 22.1875 -13.109375 22.1875 -11.140625 C 22.1875 -9.585938 21.84375 -8.132812 21.15625 -6.78125 C 20.476562 -5.4375 19.570312 -4.253906 18.4375 -3.234375 C 17.300781 -2.222656 16.046875 -1.429688 14.671875 -0.859375 C 13.296875 -0.285156 11.914062 0 10.53125 0 L 0.640625 0 L 0.640625 -7.203125 L 7.609375 -7.203125 C 8.304688 -7.203125 9.070312 -7.351562 9.90625 -7.65625 C 10.75 -7.96875 11.46875 -8.410156 12.0625 -8.984375 C 12.664062 -9.554688 12.96875 -10.234375 12.96875 -11.015625 C 12.96875 -12.242188 12.691406 -13.3125 12.140625 -14.21875 C 11.597656 -15.125 10.898438 -15.941406 10.046875 -16.671875 C 9.191406 -17.410156 8.285156 -18.144531 7.328125 -18.875 C 6.367188 -19.613281 5.460938 -20.410156 4.609375 -21.265625 C 3.753906 -22.117188 3.050781 -23.113281 2.5 -24.25 C 1.957031 -25.382812 1.6875 -26.722656 1.6875 -28.265625 C 1.6875 -29.335938 1.875 -30.554688 2.25 -31.921875 Z M 2.25 -31.921875 "/></g></g></g><g fill="#ffffff" fill-opacity="1"><g transform="translate(174.880984, 232.091265)"><g><path d="M 1.203125 -31.921875 L 9.9375 -31.921875 L 9.9375 -18.859375 L 15.296875 -18.859375 C 17.085938 -18.859375 18.609375 -19.28125 19.859375 -20.125 C 21.117188 -20.96875 22.082031 -22.148438 22.75 -23.671875 C 23.414062 -25.191406 23.75 -26.953125 23.75 -28.953125 L 23.75 -31.921875 L 32.515625 -31.921875 L 32.515625 -26.828125 C 32.515625 -25.597656 32.34375 -24.363281 32 -23.125 C 31.65625 -21.882812 31.144531 -20.726562 30.46875 -19.65625 C 29.800781 -18.59375 28.976562 -17.691406 28 -16.953125 C 27.03125 -16.222656 25.90625 -15.738281 24.625 -15.5 C 27.21875 -14.59375 29.175781 -13.175781 30.5 -11.25 C 31.820312 -9.332031 32.484375 -7.1875 32.484375 -4.8125 L 32.484375 7.203125 L 23.75 7.203125 L 23.75 -2.640625 C 23.75 -3.816406 23.5 -4.9375 23 -6 C 22.507812 -7.070312 21.835938 -8.035156 20.984375 -8.890625 C 20.128906 -9.742188 19.15625 -10.414062 18.0625 -10.90625 C 16.96875 -11.40625 15.816406 -11.65625 14.609375 -11.65625 L 9.9375 -11.65625 L 9.9375 0 L 1.203125 0 Z M 1.203125 -31.921875 "/></g></g></g><g fill="#ffffff" fill-opacity="1"><g transform="translate(208.356976, 232.091265)"><g><path d="M 1.203125 -31.921875 L 9.9375 -31.921875 L 9.9375 0 L 1.203125 0 Z M 1.203125 -31.921875 "/></g></g></g><g fill="#ffffff" fill-opacity="1"><g transform="translate(219.48894, 232.091265)"><g><path d="M 1.203125 -31.921875 L 17.859375 -31.921875 C 20.160156 -31.921875 22.289062 -31.507812 24.25 -30.6875 C 26.207031 -29.875 27.921875 -28.738281 29.390625 -27.28125 C 30.859375 -25.832031 32 -24.140625 32.8125 -22.203125 C 33.632812 -20.265625 34.046875 -18.164062 34.046875 -15.90625 C 34.046875 -13.820312 33.660156 -11.820312 32.890625 -9.90625 C 32.128906 -8 31.0625 -6.296875 29.6875 -4.796875 C 28.3125 -3.304688 26.703125 -2.132812 24.859375 -1.28125 C 23.023438 -0.425781 21.023438 0 18.859375 0 L 11.859375 0 L 11.859375 -7.203125 L 16.578125 -7.203125 C 18.078125 -7.203125 19.445312 -7.519531 20.6875 -8.15625 C 21.925781 -8.800781 22.925781 -9.769531 23.6875 -11.0625 C 24.445312 -12.363281 24.828125 -13.976562 24.828125 -15.90625 C 24.828125 -17.664062 24.429688 -19.203125 23.640625 -20.515625 C 22.859375 -21.835938 21.828125 -22.863281 20.546875 -23.59375 C 19.265625 -24.332031 17.875 -24.703125 16.375 -24.703125 L 9.9375 -24.703125 L 9.9375 7.203125 L 1.203125 7.203125 Z M 1.203125 -31.921875 "/></g></g></g><g fill="#ffffff" fill-opacity="1"><g transform="translate(254.086144, 232.091265)"><g><path d="M 21.421875 -7.203125 L 0.5625 -7.203125 L 0.5625 -17.546875 C 0.5625 -19.648438 0.96875 -21.625 1.78125 -23.46875 C 2.59375 -25.3125 3.726562 -26.925781 5.1875 -28.3125 C 6.644531 -29.695312 8.328125 -30.785156 10.234375 -31.578125 C 12.140625 -32.367188 14.1875 -32.765625 16.375 -32.765625 C 18.539062 -32.765625 20.570312 -32.367188 22.46875 -31.578125 C 24.363281 -30.785156 26.03125 -29.6875 27.46875 -28.28125 C 28.914062 -26.882812 30.046875 -25.265625 30.859375 -23.421875 C 31.671875 -21.585938 32.078125 -19.613281 32.078125 -17.5 L 32.078125 7.203125 L 23.34375 7.203125 L 23.34375 -17.9375 C 23.34375 -19.351562 23.03125 -20.632812 22.40625 -21.78125 C 21.78125 -22.925781 20.945312 -23.835938 19.90625 -24.515625 C 18.863281 -25.203125 17.703125 -25.546875 16.421875 -25.546875 C 15.109375 -25.546875 13.910156 -25.210938 12.828125 -24.546875 C 11.753906 -23.878906 10.894531 -22.984375 10.25 -21.859375 C 9.613281 -20.742188 9.296875 -19.503906 9.296875 -18.140625 L 9.296875 -14.421875 L 21.421875 -14.421875 Z M 21.421875 -7.203125 "/></g></g></g><g fill="#ffffff" fill-opacity="1"><g transform="translate(287.361921, 232.091265)"><g><path d="M 2.25 -31.921875 L 11.015625 -31.921875 C 10.828125 -31.492188 10.695312 -31.097656 10.625 -30.734375 C 10.5625 -30.378906 10.53125 -30.023438 10.53125 -29.671875 C 10.53125 -28.765625 10.8125 -27.941406 11.375 -27.203125 C 11.9375 -26.472656 12.65625 -25.753906 13.53125 -25.046875 C 14.414062 -24.335938 15.351562 -23.582031 16.34375 -22.78125 C 17.332031 -21.976562 18.269531 -21.050781 19.15625 -20 C 20.050781 -18.945312 20.78125 -17.695312 21.34375 -16.25 C 21.90625 -14.8125 22.1875 -13.109375 22.1875 -11.140625 C 22.1875 -9.585938 21.84375 -8.132812 21.15625 -6.78125 C 20.476562 -5.4375 19.570312 -4.253906 18.4375 -3.234375 C 17.300781 -2.222656 16.046875 -1.429688 14.671875 -0.859375 C 13.296875 -0.285156 11.914062 0 10.53125 0 L 0.640625 0 L 0.640625 -7.203125 L 7.609375 -7.203125 C 8.304688 -7.203125 9.070312 -7.351562 9.90625 -7.65625 C 10.75 -7.96875 11.46875 -8.410156 12.0625 -8.984375 C 12.664062 -9.554688 12.96875 -10.234375 12.96875 -11.015625 C 12.96875 -12.242188 12.691406 -13.3125 12.140625 -14.21875 C 11.597656 -15.125 10.898438 -15.941406 10.046875 -16.671875 C 9.191406 -17.410156 8.285156 -18.144531 7.328125 -18.875 C 6.367188 -19.613281 5.460938 -20.410156 4.609375 -21.265625 C 3.753906 -22.117188 3.050781 -23.113281 2.5 -24.25 C 1.957031 -25.382812 1.6875 -26.722656 1.6875 -28.265625 C 1.6875 -29.335938 1.875 -30.554688 2.25 -31.921875 Z M 2.25 -31.921875 "/></g></g></g><g fill="#ffffff" fill-opacity="1"><g transform="translate(310.106388, 232.091265)"><g><path d="M 2.25 -31.921875 L 11.015625 -31.921875 C 10.828125 -31.492188 10.695312 -31.097656 10.625 -30.734375 C 10.5625 -30.378906 10.53125 -30.023438 10.53125 -29.671875 C 10.53125 -28.765625 10.8125 -27.941406 11.375 -27.203125 C 11.9375 -26.472656 12.65625 -25.753906 13.53125 -25.046875 C 14.414062 -24.335938 15.351562 -23.582031 16.34375 -22.78125 C 17.332031 -21.976562 18.269531 -21.050781 19.15625 -20 C 20.050781 -18.945312 20.78125 -17.695312 21.34375 -16.25 C 21.90625 -14.8125 22.1875 -13.109375 22.1875 -11.140625 C 22.1875 -9.585938 21.84375 -8.132812 21.15625 -6.78125 C 20.476562 -5.4375 19.570312 -4.253906 18.4375 -3.234375 C 17.300781 -2.222656 16.046875 -1.429688 14.671875 -0.859375 C 13.296875 -0.285156 11.914062 0 10.53125 0 L 0.640625 0 L 0.640625 -7.203125 L 7.609375 -7.203125 C 8.304688 -7.203125 9.070312 -7.351562 9.90625 -7.65625 C 10.75 -7.96875 11.46875 -8.410156 12.0625 -8.984375 C 12.664062 -9.554688 12.96875 -10.234375 12.96875 -11.015625 C 12.96875 -12.242188 12.691406 -13.3125 12.140625 -14.21875 C 11.597656 -15.125 10.898438 -15.941406 10.046875 -16.671875 C 9.191406 -17.410156 8.285156 -18.144531 7.328125 -18.875 C 6.367188 -19.613281 5.460938 -20.410156 4.609375 -21.265625 C 3.753906 -22.117188 3.050781 -23.113281 2.5 -24.25 C 1.957031 -25.382812 1.6875 -26.722656 1.6875 -28.265625 C 1.6875 -29.335938 1.875 -30.554688 2.25 -31.921875 Z M 2.25 -31.921875 "/></g></g></g><g fill="#000000" fill-opacity="1"><g transform="translate(91.379406, 262.467698)"><g><path d="M 0.265625 -4.234375 L 0.3125 -6.4375 L 5.25 -6.4375 L 5.296875 -4.234375 L 5.046875 -4.234375 C 5.003906 -4.460938 4.96875 -4.648438 4.9375 -4.796875 C 4.90625 -4.941406 4.863281 -5.09375 4.8125 -5.25 C 4.769531 -5.40625 4.722656 -5.523438 4.671875 -5.609375 C 4.628906 -5.691406 4.570312 -5.773438 4.5 -5.859375 C 4.4375 -5.953125 4.359375 -6.019531 4.265625 -6.0625 C 4.171875 -6.101562 4.066406 -6.132812 3.953125 -6.15625 C 3.835938 -6.1875 3.703125 -6.203125 3.546875 -6.203125 C 3.535156 -6.203125 3.507812 -6.203125 3.46875 -6.203125 C 3.4375 -6.203125 3.40625 -6.203125 3.375 -6.203125 L 3.375 -0.25 L 4.078125 -0.203125 L 4.078125 0 L 1.53125 0 L 1.53125 -0.203125 L 2.21875 -0.25 L 2.1875 -6.1875 C 2.15625 -6.1875 2.117188 -6.1875 2.078125 -6.1875 C 2.046875 -6.195312 2.023438 -6.203125 2.015625 -6.203125 C 1.878906 -6.203125 1.757812 -6.191406 1.65625 -6.171875 C 1.550781 -6.160156 1.453125 -6.132812 1.359375 -6.09375 C 1.273438 -6.050781 1.203125 -6.003906 1.140625 -5.953125 C 1.078125 -5.898438 1.019531 -5.828125 0.96875 -5.734375 C 0.914062 -5.648438 0.867188 -5.566406 0.828125 -5.484375 C 0.785156 -5.398438 0.742188 -5.285156 0.703125 -5.140625 C 0.671875 -4.992188 0.609375 -4.691406 0.515625 -4.234375 Z M 0.265625 -4.234375 "/></g></g></g><g fill="#000000" fill-opacity="1"><g transform="translate(98.578648, 262.467698)"><g><path d="M 0.21875 -6.234375 L 0.21875 -6.4375 L 2.765625 -6.4375 L 2.765625 -6.234375 L 2.0625 -6.203125 L 2.0625 -1.984375 C 2.0625 -1.859375 2.066406 -1.742188 2.078125 -1.640625 C 2.085938 -1.546875 2.101562 -1.429688 2.125 -1.296875 C 2.144531 -1.171875 2.175781 -1.054688 2.21875 -0.953125 C 2.257812 -0.847656 2.316406 -0.742188 2.390625 -0.640625 C 2.472656 -0.535156 2.566406 -0.445312 2.671875 -0.375 C 2.785156 -0.3125 2.921875 -0.257812 3.078125 -0.21875 C 3.242188 -0.175781 3.429688 -0.15625 3.640625 -0.15625 C 3.890625 -0.15625 4.109375 -0.191406 4.296875 -0.265625 C 4.484375 -0.347656 4.632812 -0.445312 4.75 -0.5625 C 4.875 -0.6875 4.972656 -0.835938 5.046875 -1.015625 C 5.128906 -1.191406 5.1875 -1.375 5.21875 -1.5625 C 5.25 -1.75 5.265625 -1.945312 5.265625 -2.15625 L 5.265625 -6.203125 L 4.578125 -6.234375 L 4.578125 -6.4375 L 6.234375 -6.4375 L 6.234375 -6.234375 L 5.546875 -6.203125 L 5.546875 -2.0625 C 5.546875 -1.84375 5.53125 -1.632812 5.5 -1.4375 C 5.46875 -1.25 5.40625 -1.050781 5.3125 -0.84375 C 5.21875 -0.644531 5.09375 -0.472656 4.9375 -0.328125 C 4.789062 -0.191406 4.59375 -0.078125 4.34375 0.015625 C 4.101562 0.109375 3.820312 0.15625 3.5 0.15625 C 3.164062 0.15625 2.863281 0.128906 2.59375 0.078125 C 2.332031 0.0351562 2.113281 -0.0195312 1.9375 -0.09375 C 1.757812 -0.175781 1.601562 -0.28125 1.46875 -0.40625 C 1.34375 -0.53125 1.242188 -0.65625 1.171875 -0.78125 C 1.097656 -0.90625 1.039062 -1.050781 1 -1.21875 C 0.957031 -1.382812 0.929688 -1.535156 0.921875 -1.671875 C 0.910156 -1.816406 0.90625 -1.976562 0.90625 -2.15625 L 0.90625 -6.203125 Z M 0.21875 -6.234375 "/></g></g></g><g fill="#000000" fill-opacity="1"><g transform="translate(106.67632, 262.467698)"><g/></g></g><g fill="#000000" fill-opacity="1"><g transform="translate(110.403768, 262.467698)"><g><path d="M 0.265625 -4.234375 L 0.3125 -6.4375 L 5.25 -6.4375 L 5.296875 -4.234375 L 5.046875 -4.234375 C 5.003906 -4.460938 4.96875 -4.648438 4.9375 -4.796875 C 4.90625 -4.941406 4.863281 -5.09375 4.8125 -5.25 C 4.769531 -5.40625 4.722656 -5.523438 4.671875 -5.609375 C 4.628906 -5.691406 4.570312 -5.773438 4.5 -5.859375 C 4.4375 -5.953125 4.359375 -6.019531 4.265625 -6.0625 C 4.171875 -6.101562 4.066406 -6.132812 3.953125 -6.15625 C 3.835938 -6.1875 3.703125 -6.203125 3.546875 -6.203125 C 3.535156 -6.203125 3.507812 -6.203125 3.46875 -6.203125 C 3.4375 -6.203125 3.40625 -6.203125 3.375 -6.203125 L 3.375 -0.25 L 4.078125 -0.203125 L 4.078125 0 L 1.53125 0 L 1.53125 -0.203125 L 2.21875 -0.25 L 2.1875 -6.1875 C 2.15625 -6.1875 2.117188 -6.1875 2.078125 -6.1875 C 2.046875 -6.195312 2.023438 -6.203125 2.015625 -6.203125 C 1.878906 -6.203125 1.757812 -6.191406 1.65625 -6.171875 C 1.550781 -6.160156 1.453125 -6.132812 1.359375 -6.09375 C 1.273438 -6.050781 1.203125 -6.003906 1.140625 -5.953125 C 1.078125 -5.898438 1.019531 -5.828125 0.96875 -5.734375 C 0.914062 -5.648438 0.867188 -5.566406 0.828125 -5.484375 C 0.785156 -5.398438 0.742188 -5.285156 0.703125 -5.140625 C 0.671875 -4.992188 0.609375 -4.691406 0.515625 -4.234375 Z M 0.265625 -4.234375 "/></g></g></g><g fill="#000000" fill-opacity="1"><g transform="translate(117.603011, 262.467698)"><g><path d="M 0.328125 0 L 0.328125 -0.203125 L 1.03125 -0.25 L 1.03125 -6.203125 L 0.328125 -6.234375 L 0.328125 -6.4375 L 2.734375 -6.4375 C 3.066406 -6.4375 3.367188 -6.410156 3.640625 -6.359375 C 3.910156 -6.304688 4.148438 -6.21875 4.359375 -6.09375 C 4.578125 -5.96875 4.742188 -5.800781 4.859375 -5.59375 C 4.972656 -5.382812 5.03125 -5.132812 5.03125 -4.84375 C 5.03125 -4.332031 4.859375 -3.929688 4.515625 -3.640625 C 4.171875 -3.359375 3.703125 -3.171875 3.109375 -3.078125 C 3.359375 -3.078125 3.578125 -3.035156 3.765625 -2.953125 C 3.953125 -2.878906 4.097656 -2.78125 4.203125 -2.65625 C 4.316406 -2.53125 4.421875 -2.375 4.515625 -2.1875 C 4.585938 -2.050781 4.679688 -1.847656 4.796875 -1.578125 C 4.921875 -1.304688 5.046875 -1.0625 5.171875 -0.84375 C 5.265625 -0.675781 5.363281 -0.546875 5.46875 -0.453125 C 5.570312 -0.359375 5.660156 -0.300781 5.734375 -0.28125 C 5.804688 -0.257812 5.890625 -0.25 5.984375 -0.25 L 5.984375 0 L 5.234375 0 C 5.003906 0 4.820312 -0.0078125 4.6875 -0.03125 C 4.5625 -0.0625 4.429688 -0.128906 4.296875 -0.234375 C 4.160156 -0.347656 4.039062 -0.5 3.9375 -0.6875 C 3.84375 -0.882812 3.671875 -1.285156 3.421875 -1.890625 C 3.390625 -1.984375 3.335938 -2.101562 3.265625 -2.25 C 3.203125 -2.394531 3.144531 -2.503906 3.09375 -2.578125 C 3.039062 -2.648438 2.976562 -2.722656 2.90625 -2.796875 C 2.84375 -2.878906 2.773438 -2.9375 2.703125 -2.96875 C 2.640625 -3.007812 2.566406 -3.03125 2.484375 -3.03125 C 2.347656 -3.03125 2.25 -3.03125 2.1875 -3.03125 L 2.1875 -0.25 L 2.875 -0.203125 L 2.875 0 Z M 2.1875 -3.28125 C 2.21875 -3.28125 2.273438 -3.28125 2.359375 -3.28125 C 2.898438 -3.28125 3.28125 -3.410156 3.5 -3.671875 C 3.71875 -3.929688 3.828125 -4.320312 3.828125 -4.84375 C 3.828125 -5.09375 3.796875 -5.304688 3.734375 -5.484375 C 3.671875 -5.671875 3.582031 -5.8125 3.46875 -5.90625 C 3.351562 -6.007812 3.222656 -6.082031 3.078125 -6.125 C 2.941406 -6.164062 2.785156 -6.1875 2.609375 -6.1875 C 2.492188 -6.1875 2.351562 -6.175781 2.1875 -6.15625 Z M 2.1875 -3.28125 "/></g></g></g><g fill="#000000" fill-opacity="1"><g transform="translate(125.059597, 262.467698)"><g><path d="M -0.03125 0 L -0.03125 -0.203125 L 0.515625 -0.25 L 2.65625 -6.625 L 2.859375 -6.625 L 5.0625 -0.25 L 5.65625 -0.203125 L 5.65625 0 L 3.25 0 L 3.25 -0.203125 L 3.859375 -0.25 L 3.328125 -1.875 L 1.296875 -1.875 L 0.78125 -0.25 L 1.390625 -0.203125 L 1.390625 0 Z M 1.375 -2.140625 L 3.21875 -2.171875 L 2.328125 -4.953125 L 2.296875 -4.953125 Z M 1.375 -2.140625 "/></g></g></g><g fill="#000000" fill-opacity="1"><g transform="translate(132.281419, 262.467698)"><g><path d="M -0.171875 -6.234375 L -0.171875 -6.4375 L 2.484375 -6.4375 L 2.484375 -6.234375 L 1.78125 -6.203125 L 3.3125 -3.453125 L 3.328125 -3.453125 L 4.609375 -6.203125 L 3.96875 -6.234375 L 3.96875 -6.4375 L 5.46875 -6.4375 L 5.46875 -6.234375 L 4.90625 -6.203125 L 3.5 -3.171875 L 3.5 -0.25 L 4.203125 -0.203125 L 4.203125 0 L 1.65625 0 L 1.65625 -0.203125 L 2.34375 -0.25 L 2.34375 -2.90625 L 0.4375 -6.203125 Z M -0.171875 -6.234375 "/></g></g></g><g fill="#000000" fill-opacity="1"><g transform="translate(139.421974, 262.467698)"><g><path d="M 0.328125 0 L 0.328125 -0.203125 L 1.03125 -0.25 L 1.03125 -6.203125 L 0.328125 -6.234375 L 0.328125 -6.4375 L 4.78125 -6.4375 L 4.828125 -4.609375 L 4.640625 -4.609375 C 4.597656 -4.816406 4.554688 -4.988281 4.515625 -5.125 C 4.472656 -5.269531 4.414062 -5.414062 4.34375 -5.5625 C 4.269531 -5.707031 4.179688 -5.820312 4.078125 -5.90625 C 3.972656 -5.988281 3.84375 -6.054688 3.6875 -6.109375 C 3.53125 -6.171875 3.347656 -6.203125 3.140625 -6.203125 C 2.890625 -6.203125 2.570312 -6.1875 2.1875 -6.15625 L 2.1875 -3.46875 C 2.269531 -3.457031 2.429688 -3.453125 2.671875 -3.453125 C 2.984375 -3.453125 3.207031 -3.53125 3.34375 -3.6875 C 3.476562 -3.84375 3.546875 -4.125 3.546875 -4.53125 L 3.796875 -4.53125 L 3.796875 -2.109375 L 3.546875 -2.109375 C 3.546875 -2.515625 3.476562 -2.796875 3.34375 -2.953125 C 3.207031 -3.117188 2.984375 -3.203125 2.671875 -3.203125 C 2.441406 -3.203125 2.28125 -3.195312 2.1875 -3.1875 L 2.1875 -0.296875 C 2.570312 -0.265625 2.953125 -0.25 3.328125 -0.25 C 3.503906 -0.25 3.660156 -0.257812 3.796875 -0.28125 C 3.929688 -0.3125 4.046875 -0.359375 4.140625 -0.421875 C 4.242188 -0.492188 4.328125 -0.570312 4.390625 -0.65625 C 4.460938 -0.738281 4.523438 -0.84375 4.578125 -0.96875 C 4.640625 -1.101562 4.6875 -1.234375 4.71875 -1.359375 C 4.75 -1.492188 4.78125 -1.65625 4.8125 -1.84375 L 5.015625 -1.84375 L 4.96875 0 Z M 0.328125 0 "/></g></g></g><g fill="#000000" fill-opacity="1"><g transform="translate(146.521894, 262.467698)"><g><path d="M 0.4375 -3.109375 C 0.4375 -3.441406 0.472656 -3.769531 0.546875 -4.09375 C 0.617188 -4.414062 0.734375 -4.726562 0.890625 -5.03125 C 1.054688 -5.34375 1.25 -5.613281 1.46875 -5.84375 C 1.695312 -6.070312 1.976562 -6.253906 2.3125 -6.390625 C 2.65625 -6.535156 3.03125 -6.609375 3.4375 -6.609375 C 3.90625 -6.609375 4.316406 -6.476562 4.671875 -6.21875 C 5.035156 -5.957031 5.21875 -5.648438 5.21875 -5.296875 C 5.21875 -5.117188 5.160156 -4.96875 5.046875 -4.84375 C 4.929688 -4.71875 4.773438 -4.65625 4.578125 -4.65625 C 4.390625 -4.65625 4.238281 -4.710938 4.125 -4.828125 C 4.007812 -4.941406 3.953125 -5.085938 3.953125 -5.265625 C 3.953125 -5.441406 4.003906 -5.585938 4.109375 -5.703125 C 4.222656 -5.828125 4.363281 -5.890625 4.53125 -5.890625 C 4.5625 -5.890625 4.585938 -5.890625 4.609375 -5.890625 L 4.609375 -5.90625 C 4.566406 -5.988281 4.441406 -6.082031 4.234375 -6.1875 C 4.035156 -6.289062 3.796875 -6.34375 3.515625 -6.34375 C 2.972656 -6.34375 2.523438 -6.054688 2.171875 -5.484375 C 1.816406 -4.921875 1.640625 -4.171875 1.640625 -3.234375 C 1.640625 -2.835938 1.675781 -2.457031 1.75 -2.09375 C 1.820312 -1.738281 1.925781 -1.414062 2.0625 -1.125 C 2.195312 -0.832031 2.378906 -0.597656 2.609375 -0.421875 C 2.835938 -0.253906 3.101562 -0.171875 3.40625 -0.171875 C 3.832031 -0.171875 4.203125 -0.296875 4.515625 -0.546875 C 4.835938 -0.804688 5.085938 -1.132812 5.265625 -1.53125 L 5.46875 -1.4375 C 5.039062 -0.375 4.316406 0.15625 3.296875 0.15625 C 2.859375 0.15625 2.46875 0.09375 2.125 -0.03125 C 1.78125 -0.15625 1.503906 -0.316406 1.296875 -0.515625 C 1.085938 -0.722656 0.914062 -0.96875 0.78125 -1.25 C 0.65625 -1.539062 0.566406 -1.832031 0.515625 -2.125 C 0.460938 -2.425781 0.4375 -2.753906 0.4375 -3.109375 Z M 0.4375 -3.109375 "/></g></g></g><g fill="#000000" fill-opacity="1"><g transform="translate(153.815952, 262.467698)"><g><path d="M 0.265625 -4.234375 L 0.3125 -6.4375 L 5.25 -6.4375 L 5.296875 -4.234375 L 5.046875 -4.234375 C 5.003906 -4.460938 4.96875 -4.648438 4.9375 -4.796875 C 4.90625 -4.941406 4.863281 -5.09375 4.8125 -5.25 C 4.769531 -5.40625 4.722656 -5.523438 4.671875 -5.609375 C 4.628906 -5.691406 4.570312 -5.773438 4.5 -5.859375 C 4.4375 -5.953125 4.359375 -6.019531 4.265625 -6.0625 C 4.171875 -6.101562 4.066406 -6.132812 3.953125 -6.15625 C 3.835938 -6.1875 3.703125 -6.203125 3.546875 -6.203125 C 3.535156 -6.203125 3.507812 -6.203125 3.46875 -6.203125 C 3.4375 -6.203125 3.40625 -6.203125 3.375 -6.203125 L 3.375 -0.25 L 4.078125 -0.203125 L 4.078125 0 L 1.53125 0 L 1.53125 -0.203125 L 2.21875 -0.25 L 2.1875 -6.1875 C 2.15625 -6.1875 2.117188 -6.1875 2.078125 -6.1875 C 2.046875 -6.195312 2.023438 -6.203125 2.015625 -6.203125 C 1.878906 -6.203125 1.757812 -6.191406 1.65625 -6.171875 C 1.550781 -6.160156 1.453125 -6.132812 1.359375 -6.09375 C 1.273438 -6.050781 1.203125 -6.003906 1.140625 -5.953125 C 1.078125 -5.898438 1.019531 -5.828125 0.96875 -5.734375 C 0.914062 -5.648438 0.867188 -5.566406 0.828125 -5.484375 C 0.785156 -5.398438 0.742188 -5.285156 0.703125 -5.140625 C 0.671875 -4.992188 0.609375 -4.691406 0.515625 -4.234375 Z M 0.265625 -4.234375 "/></g></g></g><g fill="#000000" fill-opacity="1"><g transform="translate(161.015195, 262.467698)"><g><path d="M 0.4375 -3.203125 C 0.4375 -3.816406 0.546875 -4.378906 0.765625 -4.890625 C 0.992188 -5.410156 1.320312 -5.828125 1.75 -6.140625 C 2.175781 -6.453125 2.675781 -6.609375 3.25 -6.609375 C 4.09375 -6.609375 4.773438 -6.304688 5.296875 -5.703125 C 5.816406 -5.109375 6.078125 -4.320312 6.078125 -3.34375 C 6.078125 -2.988281 6.039062 -2.644531 5.96875 -2.3125 C 5.894531 -1.976562 5.78125 -1.660156 5.625 -1.359375 C 5.476562 -1.054688 5.296875 -0.789062 5.078125 -0.5625 C 4.867188 -0.34375 4.609375 -0.164062 4.296875 -0.03125 C 3.984375 0.09375 3.640625 0.15625 3.265625 0.15625 C 2.390625 0.15625 1.695312 -0.148438 1.1875 -0.765625 C 0.6875 -1.378906 0.4375 -2.191406 0.4375 -3.203125 Z M 1.640625 -3.296875 C 1.640625 -2.703125 1.695312 -2.164062 1.8125 -1.6875 C 1.9375 -1.21875 2.117188 -0.832031 2.359375 -0.53125 C 2.609375 -0.238281 2.90625 -0.09375 3.25 -0.09375 C 3.75 -0.09375 4.140625 -0.382812 4.421875 -0.96875 C 4.710938 -1.5625 4.859375 -2.34375 4.859375 -3.3125 C 4.859375 -4.320312 4.71875 -5.082031 4.4375 -5.59375 C 4.15625 -6.101562 3.765625 -6.359375 3.265625 -6.359375 C 3.097656 -6.359375 2.929688 -6.320312 2.765625 -6.25 C 2.609375 -6.175781 2.460938 -6.054688 2.328125 -5.890625 C 2.191406 -5.734375 2.070312 -5.535156 1.96875 -5.296875 C 1.863281 -5.066406 1.78125 -4.78125 1.71875 -4.4375 C 1.664062 -4.09375 1.640625 -3.710938 1.640625 -3.296875 Z M 1.640625 -3.296875 "/></g></g></g><g fill="#000000" fill-opacity="1"><g transform="translate(169.158014, 262.467698)"><g><path d="M 0.421875 -0.46875 C 0.421875 -0.613281 0.46875 -0.75 0.5625 -0.875 C 0.664062 -1.007812 0.816406 -1.078125 1.015625 -1.078125 C 1.234375 -1.078125 1.394531 -1 1.5 -0.84375 C 1.613281 -0.6875 1.671875 -0.492188 1.671875 -0.265625 C 1.671875 -0.078125 1.640625 0.0976562 1.578125 0.265625 C 1.523438 0.441406 1.414062 0.625 1.25 0.8125 C 1.09375 1.007812 0.882812 1.175781 0.625 1.3125 L 0.5625 1.078125 C 0.8125 0.953125 0.992188 0.796875 1.109375 0.609375 C 1.222656 0.421875 1.28125 0.242188 1.28125 0.078125 L 1.265625 0.078125 C 1.179688 0.128906 1.085938 0.15625 0.984375 0.15625 C 0.816406 0.15625 0.679688 0.0976562 0.578125 -0.015625 C 0.472656 -0.128906 0.421875 -0.28125 0.421875 -0.46875 Z M 0.421875 -0.46875 "/></g></g></g><g fill="#000000" fill-opacity="1"><g transform="translate(172.867405, 262.467698)"><g/></g></g><g fill="#000000" fill-opacity="1"><g transform="translate(176.594854, 262.467698)"><g><path d="M 0.3125 -6.234375 L 0.3125 -6.4375 L 1.28125 -6.4375 L 5.15625 -1.75 L 5.09375 -6.203125 L 4.40625 -6.234375 L 4.40625 -6.4375 L 6.078125 -6.4375 L 6.078125 -6.234375 L 5.390625 -6.203125 L 5.4375 0.09375 L 5.15625 0.09375 L 1.28125 -4.625 L 1.34375 -0.25 L 2.03125 -0.203125 L 2.03125 0 L 0.359375 0 L 0.359375 -0.203125 L 1.046875 -0.25 L 1 -6.203125 Z M 0.3125 -6.234375 "/></g></g></g><g fill="#000000" fill-opacity="1"><g transform="translate(184.615771, 262.467698)"><g><path d="M 0.21875 -6.234375 L 0.21875 -6.4375 L 2.765625 -6.4375 L 2.765625 -6.234375 L 2.0625 -6.203125 L 2.0625 -1.984375 C 2.0625 -1.859375 2.066406 -1.742188 2.078125 -1.640625 C 2.085938 -1.546875 2.101562 -1.429688 2.125 -1.296875 C 2.144531 -1.171875 2.175781 -1.054688 2.21875 -0.953125 C 2.257812 -0.847656 2.316406 -0.742188 2.390625 -0.640625 C 2.472656 -0.535156 2.566406 -0.445312 2.671875 -0.375 C 2.785156 -0.3125 2.921875 -0.257812 3.078125 -0.21875 C 3.242188 -0.175781 3.429688 -0.15625 3.640625 -0.15625 C 3.890625 -0.15625 4.109375 -0.191406 4.296875 -0.265625 C 4.484375 -0.347656 4.632812 -0.445312 4.75 -0.5625 C 4.875 -0.6875 4.972656 -0.835938 5.046875 -1.015625 C 5.128906 -1.191406 5.1875 -1.375 5.21875 -1.5625 C 5.25 -1.75 5.265625 -1.945312 5.265625 -2.15625 L 5.265625 -6.203125 L 4.578125 -6.234375 L 4.578125 -6.4375 L 6.234375 -6.4375 L 6.234375 -6.234375 L 5.546875 -6.203125 L 5.546875 -2.0625 C 5.546875 -1.84375 5.53125 -1.632812 5.5 -1.4375 C 5.46875 -1.25 5.40625 -1.050781 5.3125 -0.84375 C 5.21875 -0.644531 5.09375 -0.472656 4.9375 -0.328125 C 4.789062 -0.191406 4.59375 -0.078125 4.34375 0.015625 C 4.101562 0.109375 3.820312 0.15625 3.5 0.15625 C 3.164062 0.15625 2.863281 0.128906 2.59375 0.078125 C 2.332031 0.0351562 2.113281 -0.0195312 1.9375 -0.09375 C 1.757812 -0.175781 1.601562 -0.28125 1.46875 -0.40625 C 1.34375 -0.53125 1.242188 -0.65625 1.171875 -0.78125 C 1.097656 -0.90625 1.039062 -1.050781 1 -1.21875 C 0.957031 -1.382812 0.929688 -1.535156 0.921875 -1.671875 C 0.910156 -1.816406 0.90625 -1.976562 0.90625 -2.15625 L 0.90625 -6.203125 Z M 0.21875 -6.234375 "/></g></g></g><g fill="#000000" fill-opacity="1"><g transform="translate(192.713444, 262.467698)"><g><path d="M 0.328125 0 L 0.328125 -0.203125 L 1.03125 -0.25 L 1.03125 -6.203125 L 0.328125 -6.234375 L 0.328125 -6.4375 L 4.78125 -6.4375 L 4.828125 -4.609375 L 4.640625 -4.609375 C 4.597656 -4.816406 4.554688 -4.988281 4.515625 -5.125 C 4.472656 -5.269531 4.414062 -5.414062 4.34375 -5.5625 C 4.269531 -5.707031 4.179688 -5.820312 4.078125 -5.90625 C 3.972656 -5.988281 3.84375 -6.054688 3.6875 -6.109375 C 3.53125 -6.171875 3.347656 -6.203125 3.140625 -6.203125 C 2.890625 -6.203125 2.570312 -6.1875 2.1875 -6.15625 L 2.1875 -3.46875 C 2.269531 -3.457031 2.429688 -3.453125 2.671875 -3.453125 C 2.984375 -3.453125 3.207031 -3.53125 3.34375 -3.6875 C 3.476562 -3.84375 3.546875 -4.125 3.546875 -4.53125 L 3.796875 -4.53125 L 3.796875 -2.109375 L 3.546875 -2.109375 C 3.546875 -2.515625 3.476562 -2.796875 3.34375 -2.953125 C 3.207031 -3.117188 2.984375 -3.203125 2.671875 -3.203125 C 2.441406 -3.203125 2.28125 -3.195312 2.1875 -3.1875 L 2.1875 -0.296875 C 2.570312 -0.265625 2.953125 -0.25 3.328125 -0.25 C 3.503906 -0.25 3.660156 -0.257812 3.796875 -0.28125 C 3.929688 -0.3125 4.046875 -0.359375 4.140625 -0.421875 C 4.242188 -0.492188 4.328125 -0.570312 4.390625 -0.65625 C 4.460938 -0.738281 4.523438 -0.84375 4.578125 -0.96875 C 4.640625 -1.101562 4.6875 -1.234375 4.71875 -1.359375 C 4.75 -1.492188 4.78125 -1.65625 4.8125 -1.84375 L 5.015625 -1.84375 L 4.96875 0 Z M 0.328125 0 "/></g></g></g><g fill="#000000" fill-opacity="1"><g transform="translate(199.813358, 262.467698)"><g><path d="M 2.59375 -6.359375 C 2.375 -6.359375 2.179688 -6.332031 2.015625 -6.28125 C 1.859375 -6.226562 1.722656 -6.15625 1.609375 -6.0625 C 1.503906 -5.96875 1.421875 -5.851562 1.359375 -5.71875 C 1.304688 -5.59375 1.28125 -5.453125 1.28125 -5.296875 C 1.28125 -5.179688 1.296875 -5.066406 1.328125 -4.953125 C 1.359375 -4.847656 1.421875 -4.738281 1.515625 -4.625 C 1.617188 -4.519531 1.765625 -4.40625 1.953125 -4.28125 C 2.140625 -4.15625 2.390625 -4.023438 2.703125 -3.890625 C 3.078125 -3.722656 3.390625 -3.566406 3.640625 -3.421875 C 3.898438 -3.273438 4.109375 -3.117188 4.265625 -2.953125 C 4.421875 -2.785156 4.535156 -2.597656 4.609375 -2.390625 C 4.679688 -2.179688 4.71875 -1.9375 4.71875 -1.65625 C 4.71875 -1.4375 4.671875 -1.21875 4.578125 -1 C 4.492188 -0.78125 4.363281 -0.582031 4.1875 -0.40625 C 4.007812 -0.238281 3.785156 -0.101562 3.515625 0 C 3.253906 0.101562 2.945312 0.15625 2.59375 0.15625 C 2.1875 0.15625 1.847656 0.117188 1.578125 0.046875 C 1.304688 -0.0234375 1.085938 -0.117188 0.921875 -0.234375 C 0.765625 -0.359375 0.648438 -0.492188 0.578125 -0.640625 C 0.503906 -0.785156 0.46875 -0.9375 0.46875 -1.09375 C 0.46875 -1.1875 0.484375 -1.273438 0.515625 -1.359375 C 0.546875 -1.453125 0.585938 -1.53125 0.640625 -1.59375 C 0.703125 -1.65625 0.773438 -1.703125 0.859375 -1.734375 C 0.953125 -1.773438 1.050781 -1.796875 1.15625 -1.796875 C 1.257812 -1.796875 1.347656 -1.78125 1.421875 -1.75 C 1.503906 -1.71875 1.570312 -1.671875 1.625 -1.609375 C 1.6875 -1.546875 1.734375 -1.472656 1.765625 -1.390625 C 1.796875 -1.316406 1.8125 -1.234375 1.8125 -1.140625 C 1.8125 -0.929688 1.75 -0.769531 1.625 -0.65625 C 1.5 -0.550781 1.335938 -0.5 1.140625 -0.5 L 1.140625 -0.484375 C 1.160156 -0.453125 1.203125 -0.414062 1.265625 -0.375 C 1.328125 -0.332031 1.410156 -0.289062 1.515625 -0.25 C 1.628906 -0.207031 1.765625 -0.171875 1.921875 -0.140625 C 2.085938 -0.109375 2.28125 -0.09375 2.5 -0.09375 C 2.6875 -0.09375 2.867188 -0.113281 3.046875 -0.15625 C 3.222656 -0.207031 3.378906 -0.28125 3.515625 -0.375 C 3.660156 -0.46875 3.773438 -0.578125 3.859375 -0.703125 C 3.953125 -0.835938 4 -0.984375 4 -1.140625 C 4 -1.273438 3.972656 -1.40625 3.921875 -1.53125 C 3.867188 -1.65625 3.769531 -1.78125 3.625 -1.90625 C 3.488281 -2.03125 3.296875 -2.160156 3.046875 -2.296875 C 2.796875 -2.441406 2.46875 -2.601562 2.0625 -2.78125 C 1.757812 -2.90625 1.507812 -3.046875 1.3125 -3.203125 C 1.125 -3.359375 0.972656 -3.519531 0.859375 -3.6875 C 0.753906 -3.851562 0.679688 -4.03125 0.640625 -4.21875 C 0.597656 -4.40625 0.578125 -4.597656 0.578125 -4.796875 C 0.578125 -5.035156 0.625 -5.265625 0.71875 -5.484375 C 0.8125 -5.710938 0.941406 -5.90625 1.109375 -6.0625 C 1.285156 -6.226562 1.5 -6.359375 1.75 -6.453125 C 2 -6.554688 2.285156 -6.609375 2.609375 -6.609375 C 2.921875 -6.609375 3.191406 -6.570312 3.421875 -6.5 C 3.648438 -6.425781 3.835938 -6.328125 3.984375 -6.203125 C 4.140625 -6.085938 4.253906 -5.953125 4.328125 -5.796875 C 4.398438 -5.640625 4.4375 -5.472656 4.4375 -5.296875 C 4.4375 -5.203125 4.421875 -5.113281 4.390625 -5.03125 C 4.359375 -4.957031 4.3125 -4.890625 4.25 -4.828125 C 4.195312 -4.765625 4.128906 -4.710938 4.046875 -4.671875 C 3.960938 -4.628906 3.867188 -4.609375 3.765625 -4.609375 C 3.660156 -4.609375 3.566406 -4.625 3.484375 -4.65625 C 3.410156 -4.695312 3.34375 -4.742188 3.28125 -4.796875 C 3.21875 -4.859375 3.171875 -4.925781 3.140625 -5 C 3.109375 -5.082031 3.09375 -5.171875 3.09375 -5.265625 C 3.09375 -5.367188 3.109375 -5.460938 3.140625 -5.546875 C 3.179688 -5.628906 3.234375 -5.695312 3.296875 -5.75 C 3.359375 -5.800781 3.429688 -5.84375 3.515625 -5.875 C 3.597656 -5.90625 3.691406 -5.921875 3.796875 -5.921875 L 3.796875 -5.9375 C 3.773438 -5.957031 3.734375 -5.988281 3.671875 -6.03125 C 3.617188 -6.082031 3.546875 -6.128906 3.453125 -6.171875 C 3.359375 -6.222656 3.238281 -6.265625 3.09375 -6.296875 C 2.957031 -6.335938 2.789062 -6.359375 2.59375 -6.359375 Z M 2.59375 -6.359375 "/></g></g></g><g fill="#000000" fill-opacity="1"><g transform="translate(206.50695, 262.467698)"><g><path d="M 0.265625 -4.234375 L 0.3125 -6.4375 L 5.25 -6.4375 L 5.296875 -4.234375 L 5.046875 -4.234375 C 5.003906 -4.460938 4.96875 -4.648438 4.9375 -4.796875 C 4.90625 -4.941406 4.863281 -5.09375 4.8125 -5.25 C 4.769531 -5.40625 4.722656 -5.523438 4.671875 -5.609375 C 4.628906 -5.691406 4.570312 -5.773438 4.5 -5.859375 C 4.4375 -5.953125 4.359375 -6.019531 4.265625 -6.0625 C 4.171875 -6.101562 4.066406 -6.132812 3.953125 -6.15625 C 3.835938 -6.1875 3.703125 -6.203125 3.546875 -6.203125 C 3.535156 -6.203125 3.507812 -6.203125 3.46875 -6.203125 C 3.4375 -6.203125 3.40625 -6.203125 3.375 -6.203125 L 3.375 -0.25 L 4.078125 -0.203125 L 4.078125 0 L 1.53125 0 L 1.53125 -0.203125 L 2.21875 -0.25 L 2.1875 -6.1875 C 2.15625 -6.1875 2.117188 -6.1875 2.078125 -6.1875 C 2.046875 -6.195312 2.023438 -6.203125 2.015625 -6.203125 C 1.878906 -6.203125 1.757812 -6.191406 1.65625 -6.171875 C 1.550781 -6.160156 1.453125 -6.132812 1.359375 -6.09375 C 1.273438 -6.050781 1.203125 -6.003906 1.140625 -5.953125 C 1.078125 -5.898438 1.019531 -5.828125 0.96875 -5.734375 C 0.914062 -5.648438 0.867188 -5.566406 0.828125 -5.484375 C 0.785156 -5.398438 0.742188 -5.285156 0.703125 -5.140625 C 0.671875 -4.992188 0.609375 -4.691406 0.515625 -4.234375 Z M 0.265625 -4.234375 "/></g></g></g><g fill="#000000" fill-opacity="1"><g transform="translate(213.706187, 262.467698)"><g><path d="M 0.328125 0 L 0.328125 -0.203125 L 1.03125 -0.25 L 1.03125 -6.203125 L 0.328125 -6.234375 L 0.328125 -6.4375 L 2.734375 -6.4375 C 3.066406 -6.4375 3.367188 -6.410156 3.640625 -6.359375 C 3.910156 -6.304688 4.148438 -6.21875 4.359375 -6.09375 C 4.578125 -5.96875 4.742188 -5.800781 4.859375 -5.59375 C 4.972656 -5.382812 5.03125 -5.132812 5.03125 -4.84375 C 5.03125 -4.332031 4.859375 -3.929688 4.515625 -3.640625 C 4.171875 -3.359375 3.703125 -3.171875 3.109375 -3.078125 C 3.359375 -3.078125 3.578125 -3.035156 3.765625 -2.953125 C 3.953125 -2.878906 4.097656 -2.78125 4.203125 -2.65625 C 4.316406 -2.53125 4.421875 -2.375 4.515625 -2.1875 C 4.585938 -2.050781 4.679688 -1.847656 4.796875 -1.578125 C 4.921875 -1.304688 5.046875 -1.0625 5.171875 -0.84375 C 5.265625 -0.675781 5.363281 -0.546875 5.46875 -0.453125 C 5.570312 -0.359375 5.660156 -0.300781 5.734375 -0.28125 C 5.804688 -0.257812 5.890625 -0.25 5.984375 -0.25 L 5.984375 0 L 5.234375 0 C 5.003906 0 4.820312 -0.0078125 4.6875 -0.03125 C 4.5625 -0.0625 4.429688 -0.128906 4.296875 -0.234375 C 4.160156 -0.347656 4.039062 -0.5 3.9375 -0.6875 C 3.84375 -0.882812 3.671875 -1.285156 3.421875 -1.890625 C 3.390625 -1.984375 3.335938 -2.101562 3.265625 -2.25 C 3.203125 -2.394531 3.144531 -2.503906 3.09375 -2.578125 C 3.039062 -2.648438 2.976562 -2.722656 2.90625 -2.796875 C 2.84375 -2.878906 2.773438 -2.9375 2.703125 -2.96875 C 2.640625 -3.007812 2.566406 -3.03125 2.484375 -3.03125 C 2.347656 -3.03125 2.25 -3.03125 2.1875 -3.03125 L 2.1875 -0.25 L 2.875 -0.203125 L 2.875 0 Z M 2.1875 -3.28125 C 2.21875 -3.28125 2.273438 -3.28125 2.359375 -3.28125 C 2.898438 -3.28125 3.28125 -3.410156 3.5 -3.671875 C 3.71875 -3.929688 3.828125 -4.320312 3.828125 -4.84375 C 3.828125 -5.09375 3.796875 -5.304688 3.734375 -5.484375 C 3.671875 -5.671875 3.582031 -5.8125 3.46875 -5.90625 C 3.351562 -6.007812 3.222656 -6.082031 3.078125 -6.125 C 2.941406 -6.164062 2.785156 -6.1875 2.609375 -6.1875 C 2.492188 -6.1875 2.351562 -6.175781 2.1875 -6.15625 Z M 2.1875 -3.28125 "/></g></g></g><g fill="#000000" fill-opacity="1"><g transform="translate(221.162768, 262.467698)"><g><path d="M -0.03125 0 L -0.03125 -0.203125 L 0.515625 -0.25 L 2.65625 -6.625 L 2.859375 -6.625 L 5.0625 -0.25 L 5.65625 -0.203125 L 5.65625 0 L 3.25 0 L 3.25 -0.203125 L 3.859375 -0.25 L 3.328125 -1.875 L 1.296875 -1.875 L 0.78125 -0.25 L 1.390625 -0.203125 L 1.390625 0 Z M 1.375 -2.140625 L 3.21875 -2.171875 L 2.328125 -4.953125 L 2.296875 -4.953125 Z M 1.375 -2.140625 "/></g></g></g><g fill="#000000" fill-opacity="1"><g transform="translate(228.384585, 262.467698)"><g/></g></g><g fill="#000000" fill-opacity="1"><g transform="translate(232.112028, 262.467698)"><g><path d="M 0.328125 0 L 0.328125 -0.203125 L 1.03125 -0.25 L 1.03125 -6.203125 L 0.328125 -6.234375 L 0.328125 -6.4375 L 2.78125 -6.4375 C 3.113281 -6.4375 3.421875 -6.398438 3.703125 -6.328125 C 3.984375 -6.265625 4.234375 -6.160156 4.453125 -6.015625 C 4.679688 -5.867188 4.859375 -5.675781 4.984375 -5.4375 C 5.117188 -5.195312 5.1875 -4.921875 5.1875 -4.609375 C 5.1875 -4.328125 5.132812 -4.066406 5.03125 -3.828125 C 4.9375 -3.597656 4.804688 -3.40625 4.640625 -3.25 C 4.472656 -3.09375 4.269531 -2.960938 4.03125 -2.859375 C 3.800781 -2.753906 3.554688 -2.675781 3.296875 -2.625 C 3.035156 -2.582031 2.757812 -2.5625 2.46875 -2.5625 C 2.40625 -2.5625 2.3125 -2.566406 2.1875 -2.578125 L 2.1875 -0.25 L 2.875 -0.203125 L 2.875 0 Z M 2.1875 -2.828125 C 2.289062 -2.816406 2.394531 -2.8125 2.5 -2.8125 C 3.488281 -2.8125 3.984375 -3.414062 3.984375 -4.625 C 3.984375 -4.914062 3.945312 -5.164062 3.875 -5.375 C 3.8125 -5.582031 3.71875 -5.738281 3.59375 -5.84375 C 3.46875 -5.957031 3.328125 -6.039062 3.171875 -6.09375 C 3.023438 -6.144531 2.851562 -6.171875 2.65625 -6.171875 C 2.507812 -6.171875 2.351562 -6.160156 2.1875 -6.140625 Z M 2.1875 -2.828125 "/></g></g></g><g fill="#000000" fill-opacity="1"><g transform="translate(239.198404, 262.467698)"><g><path d="M 0.328125 0 L 0.328125 -0.203125 L 1.03125 -0.25 L 1.03125 -6.203125 L 0.328125 -6.234375 L 0.328125 -6.4375 L 2.734375 -6.4375 C 3.066406 -6.4375 3.367188 -6.410156 3.640625 -6.359375 C 3.910156 -6.304688 4.148438 -6.21875 4.359375 -6.09375 C 4.578125 -5.96875 4.742188 -5.800781 4.859375 -5.59375 C 4.972656 -5.382812 5.03125 -5.132812 5.03125 -4.84375 C 5.03125 -4.332031 4.859375 -3.929688 4.515625 -3.640625 C 4.171875 -3.359375 3.703125 -3.171875 3.109375 -3.078125 C 3.359375 -3.078125 3.578125 -3.035156 3.765625 -2.953125 C 3.953125 -2.878906 4.097656 -2.78125 4.203125 -2.65625 C 4.316406 -2.53125 4.421875 -2.375 4.515625 -2.1875 C 4.585938 -2.050781 4.679688 -1.847656 4.796875 -1.578125 C 4.921875 -1.304688 5.046875 -1.0625 5.171875 -0.84375 C 5.265625 -0.675781 5.363281 -0.546875 5.46875 -0.453125 C 5.570312 -0.359375 5.660156 -0.300781 5.734375 -0.28125 C 5.804688 -0.257812 5.890625 -0.25 5.984375 -0.25 L 5.984375 0 L 5.234375 0 C 5.003906 0 4.820312 -0.0078125 4.6875 -0.03125 C 4.5625 -0.0625 4.429688 -0.128906 4.296875 -0.234375 C 4.160156 -0.347656 4.039062 -0.5 3.9375 -0.6875 C 3.84375 -0.882812 3.671875 -1.285156 3.421875 -1.890625 C 3.390625 -1.984375 3.335938 -2.101562 3.265625 -2.25 C 3.203125 -2.394531 3.144531 -2.503906 3.09375 -2.578125 C 3.039062 -2.648438 2.976562 -2.722656 2.90625 -2.796875 C 2.84375 -2.878906 2.773438 -2.9375 2.703125 -2.96875 C 2.640625 -3.007812 2.566406 -3.03125 2.484375 -3.03125 C 2.347656 -3.03125 2.25 -3.03125 2.1875 -3.03125 L 2.1875 -0.25 L 2.875 -0.203125 L 2.875 0 Z M 2.1875 -3.28125 C 2.21875 -3.28125 2.273438 -3.28125 2.359375 -3.28125 C 2.898438 -3.28125 3.28125 -3.410156 3.5 -3.671875 C 3.71875 -3.929688 3.828125 -4.320312 3.828125 -4.84375 C 3.828125 -5.09375 3.796875 -5.304688 3.734375 -5.484375 C 3.671875 -5.671875 3.582031 -5.8125 3.46875 -5.90625 C 3.351562 -6.007812 3.222656 -6.082031 3.078125 -6.125 C 2.941406 -6.164062 2.785156 -6.1875 2.609375 -6.1875 C 2.492188 -6.1875 2.351562 -6.175781 2.1875 -6.15625 Z M 2.1875 -3.28125 "/></g></g></g><g fill="#000000" fill-opacity="1"><g transform="translate(246.654984, 262.467698)"><g><path d="M 0.328125 0 L 0.328125 -0.203125 L 1.03125 -0.25 L 1.03125 -6.203125 L 0.328125 -6.234375 L 0.328125 -6.4375 L 2.875 -6.4375 L 2.875 -6.234375 L 2.1875 -6.203125 L 2.1875 -0.25 L 2.875 -0.203125 L 2.875 0 Z M 0.328125 0 "/></g></g></g><g fill="#000000" fill-opacity="1"><g transform="translate(251.497552, 262.467698)"><g><path d="M 0.4375 -3.203125 C 0.4375 -3.816406 0.546875 -4.378906 0.765625 -4.890625 C 0.992188 -5.410156 1.320312 -5.828125 1.75 -6.140625 C 2.175781 -6.453125 2.675781 -6.609375 3.25 -6.609375 C 4.09375 -6.609375 4.773438 -6.304688 5.296875 -5.703125 C 5.816406 -5.109375 6.078125 -4.320312 6.078125 -3.34375 C 6.078125 -2.988281 6.039062 -2.644531 5.96875 -2.3125 C 5.894531 -1.976562 5.78125 -1.660156 5.625 -1.359375 C 5.476562 -1.054688 5.296875 -0.789062 5.078125 -0.5625 C 4.867188 -0.34375 4.609375 -0.164062 4.296875 -0.03125 C 3.984375 0.09375 3.640625 0.15625 3.265625 0.15625 C 2.390625 0.15625 1.695312 -0.148438 1.1875 -0.765625 C 0.6875 -1.378906 0.4375 -2.191406 0.4375 -3.203125 Z M 1.640625 -3.296875 C 1.640625 -2.703125 1.695312 -2.164062 1.8125 -1.6875 C 1.9375 -1.21875 2.117188 -0.832031 2.359375 -0.53125 C 2.609375 -0.238281 2.90625 -0.09375 3.25 -0.09375 C 3.75 -0.09375 4.140625 -0.382812 4.421875 -0.96875 C 4.710938 -1.5625 4.859375 -2.34375 4.859375 -3.3125 C 4.859375 -4.320312 4.71875 -5.082031 4.4375 -5.59375 C 4.15625 -6.101562 3.765625 -6.359375 3.265625 -6.359375 C 3.097656 -6.359375 2.929688 -6.320312 2.765625 -6.25 C 2.609375 -6.175781 2.460938 -6.054688 2.328125 -5.890625 C 2.191406 -5.734375 2.070312 -5.535156 1.96875 -5.296875 C 1.863281 -5.066406 1.78125 -4.78125 1.71875 -4.4375 C 1.664062 -4.09375 1.640625 -3.710938 1.640625 -3.296875 Z M 1.640625 -3.296875 "/></g></g></g><g fill="#000000" fill-opacity="1"><g transform="translate(259.640366, 262.467698)"><g><path d="M 0.328125 0 L 0.328125 -0.203125 L 1.03125 -0.25 L 1.03125 -6.203125 L 0.328125 -6.234375 L 0.328125 -6.4375 L 2.734375 -6.4375 C 3.066406 -6.4375 3.367188 -6.410156 3.640625 -6.359375 C 3.910156 -6.304688 4.148438 -6.21875 4.359375 -6.09375 C 4.578125 -5.96875 4.742188 -5.800781 4.859375 -5.59375 C 4.972656 -5.382812 5.03125 -5.132812 5.03125 -4.84375 C 5.03125 -4.332031 4.859375 -3.929688 4.515625 -3.640625 C 4.171875 -3.359375 3.703125 -3.171875 3.109375 -3.078125 C 3.359375 -3.078125 3.578125 -3.035156 3.765625 -2.953125 C 3.953125 -2.878906 4.097656 -2.78125 4.203125 -2.65625 C 4.316406 -2.53125 4.421875 -2.375 4.515625 -2.1875 C 4.585938 -2.050781 4.679688 -1.847656 4.796875 -1.578125 C 4.921875 -1.304688 5.046875 -1.0625 5.171875 -0.84375 C 5.265625 -0.675781 5.363281 -0.546875 5.46875 -0.453125 C 5.570312 -0.359375 5.660156 -0.300781 5.734375 -0.28125 C 5.804688 -0.257812 5.890625 -0.25 5.984375 -0.25 L 5.984375 0 L 5.234375 0 C 5.003906 0 4.820312 -0.0078125 4.6875 -0.03125 C 4.5625 -0.0625 4.429688 -0.128906 4.296875 -0.234375 C 4.160156 -0.347656 4.039062 -0.5 3.9375 -0.6875 C 3.84375 -0.882812 3.671875 -1.285156 3.421875 -1.890625 C 3.390625 -1.984375 3.335938 -2.101562 3.265625 -2.25 C 3.203125 -2.394531 3.144531 -2.503906 3.09375 -2.578125 C 3.039062 -2.648438 2.976562 -2.722656 2.90625 -2.796875 C 2.84375 -2.878906 2.773438 -2.9375 2.703125 -2.96875 C 2.640625 -3.007812 2.566406 -3.03125 2.484375 -3.03125 C 2.347656 -3.03125 2.25 -3.03125 2.1875 -3.03125 L 2.1875 -0.25 L 2.875 -0.203125 L 2.875 0 Z M 2.1875 -3.28125 C 2.21875 -3.28125 2.273438 -3.28125 2.359375 -3.28125 C 2.898438 -3.28125 3.28125 -3.410156 3.5 -3.671875 C 3.71875 -3.929688 3.828125 -4.320312 3.828125 -4.84375 C 3.828125 -5.09375 3.796875 -5.304688 3.734375 -5.484375 C 3.671875 -5.671875 3.582031 -5.8125 3.46875 -5.90625 C 3.351562 -6.007812 3.222656 -6.082031 3.078125 -6.125 C 2.941406 -6.164062 2.785156 -6.1875 2.609375 -6.1875 C 2.492188 -6.1875 2.351562 -6.175781 2.1875 -6.15625 Z M 2.1875 -3.28125 "/></g></g></g><g fill="#000000" fill-opacity="1"><g transform="translate(267.096946, 262.467698)"><g><path d="M 0.328125 0 L 0.328125 -0.203125 L 1.03125 -0.25 L 1.03125 -6.203125 L 0.328125 -6.234375 L 0.328125 -6.4375 L 2.875 -6.4375 L 2.875 -6.234375 L 2.1875 -6.203125 L 2.1875 -0.25 L 2.875 -0.203125 L 2.875 0 Z M 0.328125 0 "/></g></g></g><g fill="#000000" fill-opacity="1"><g transform="translate(271.939513, 262.467698)"><g><path d="M 0.328125 0 L 0.328125 -0.203125 L 1.03125 -0.25 L 1.03125 -6.203125 L 0.328125 -6.234375 L 0.328125 -6.4375 L 2.609375 -6.4375 C 3.210938 -6.4375 3.734375 -6.359375 4.171875 -6.203125 C 4.609375 -6.054688 4.953125 -5.835938 5.203125 -5.546875 C 5.460938 -5.253906 5.648438 -4.914062 5.765625 -4.53125 C 5.878906 -4.144531 5.9375 -3.695312 5.9375 -3.1875 C 5.9375 -2.820312 5.898438 -2.484375 5.828125 -2.171875 C 5.753906 -1.859375 5.632812 -1.566406 5.46875 -1.296875 C 5.300781 -1.023438 5.09375 -0.796875 4.84375 -0.609375 C 4.601562 -0.421875 4.304688 -0.269531 3.953125 -0.15625 C 3.597656 -0.0507812 3.195312 0 2.75 0 Z M 2.1875 -0.296875 C 2.34375 -0.265625 2.488281 -0.25 2.625 -0.25 C 2.925781 -0.25 3.195312 -0.296875 3.4375 -0.390625 C 3.675781 -0.492188 3.875 -0.632812 4.03125 -0.8125 C 4.195312 -0.988281 4.332031 -1.203125 4.4375 -1.453125 C 4.550781 -1.710938 4.628906 -1.988281 4.671875 -2.28125 C 4.722656 -2.582031 4.75 -2.910156 4.75 -3.265625 C 4.75 -3.617188 4.726562 -3.929688 4.6875 -4.203125 C 4.65625 -4.472656 4.59375 -4.738281 4.5 -5 C 4.414062 -5.257812 4.296875 -5.472656 4.140625 -5.640625 C 3.992188 -5.804688 3.796875 -5.941406 3.546875 -6.046875 C 3.296875 -6.148438 3.003906 -6.203125 2.671875 -6.203125 C 2.503906 -6.203125 2.34375 -6.1875 2.1875 -6.15625 Z M 2.1875 -0.296875 "/></g></g></g><g fill="#000000" fill-opacity="1"><g transform="translate(279.978484, 262.467698)"><g><path d="M -0.03125 0 L -0.03125 -0.203125 L 0.515625 -0.25 L 2.65625 -6.625 L 2.859375 -6.625 L 5.0625 -0.25 L 5.65625 -0.203125 L 5.65625 0 L 3.25 0 L 3.25 -0.203125 L 3.859375 -0.25 L 3.328125 -1.875 L 1.296875 -1.875 L 0.78125 -0.25 L 1.390625 -0.203125 L 1.390625 0 Z M 1.375 -2.140625 L 3.21875 -2.171875 L 2.328125 -4.953125 L 2.296875 -4.953125 Z M 1.375 -2.140625 "/></g></g></g><g fill="#000000" fill-opacity="1"><g transform="translate(287.2003, 262.467698)"><g><path d="M 0.328125 0 L 0.328125 -0.203125 L 1.03125 -0.25 L 1.03125 -6.203125 L 0.328125 -6.234375 L 0.328125 -6.4375 L 2.609375 -6.4375 C 3.210938 -6.4375 3.734375 -6.359375 4.171875 -6.203125 C 4.609375 -6.054688 4.953125 -5.835938 5.203125 -5.546875 C 5.460938 -5.253906 5.648438 -4.914062 5.765625 -4.53125 C 5.878906 -4.144531 5.9375 -3.695312 5.9375 -3.1875 C 5.9375 -2.820312 5.898438 -2.484375 5.828125 -2.171875 C 5.753906 -1.859375 5.632812 -1.566406 5.46875 -1.296875 C 5.300781 -1.023438 5.09375 -0.796875 4.84375 -0.609375 C 4.601562 -0.421875 4.304688 -0.269531 3.953125 -0.15625 C 3.597656 -0.0507812 3.195312 0 2.75 0 Z M 2.1875 -0.296875 C 2.34375 -0.265625 2.488281 -0.25 2.625 -0.25 C 2.925781 -0.25 3.195312 -0.296875 3.4375 -0.390625 C 3.675781 -0.492188 3.875 -0.632812 4.03125 -0.8125 C 4.195312 -0.988281 4.332031 -1.203125 4.4375 -1.453125 C 4.550781 -1.710938 4.628906 -1.988281 4.671875 -2.28125 C 4.722656 -2.582031 4.75 -2.910156 4.75 -3.265625 C 4.75 -3.617188 4.726562 -3.929688 4.6875 -4.203125 C 4.65625 -4.472656 4.59375 -4.738281 4.5 -5 C 4.414062 -5.257812 4.296875 -5.472656 4.140625 -5.640625 C 3.992188 -5.804688 3.796875 -5.941406 3.546875 -6.046875 C 3.296875 -6.148438 3.003906 -6.203125 2.671875 -6.203125 C 2.503906 -6.203125 2.34375 -6.1875 2.1875 -6.15625 Z M 2.1875 -0.296875 "/></g></g></g></svg>